<svg xmlns="http://www.w3.org/2000/svg" viewBox="0 0 145.68 167.03"><defs><style>.cls-1{fill:#0916ff;}.cls-2{fill:#ff8040;}</style></defs><g id="Layer_2" data-name="Layer 2"><g id="Layer_1-2" data-name="Layer 1"><path class="cls-1" d="M44.31,167c.37-11.76.35-23.53.68-35.29.12-4.17.28-8.35.52-12.52.23-4,.86-8.06.15-12-1.26-7-7.77-11-14-13.31-3.68-1.37-7.51-2.38-11-4.13a29.7,29.7,0,0,1-7.86-5.66,36.88,36.88,0,0,1-9.46-17,53.19,53.19,0,0,1-.08-23.75,24.52,24.52,0,0,1,1.46-5.42c.54-1.13,2-2.69,3.38-1.83,1.1.69.73,2.38.45,3.41-.44,1.64-1.2,3.19-1.7,4.81a36.89,36.89,0,0,0,11.21,39,39.27,39.27,0,0,0,4,3c1.06.69,2-1,1-1.69A35,35,0,0,1,8.16,46.85a44.87,44.87,0,0,1,1.75-5.29,9.42,9.42,0,0,0,.83-4.37A3.51,3.51,0,0,0,8.11,34a4.4,4.4,0,0,0-4.19,1.54,12,12,0,0,0-2.08,5.13C1.38,42.65,1,44.62.7,46.6A58.6,58.6,0,0,0,.1,58.8,42.75,42.75,0,0,0,6.55,79.43,33.53,33.53,0,0,0,21.61,92.34c6.62,2.81,14.56,4,19.49,9.7,2.48,2.9,3,6.47,2.89,10.19-.16,4.24-.54,8.47-.72,12.72-.59,14-.46,28.06-.91,42.08"/><path class="cls-1" d="M10.54,39.73a19,19,0,0,1,.74-2.2l.27-.68a.61.61,0,0,0,0-.12c.09-.22-.08.2,0,0s.11-.25.16-.37c.19-.43.39-.85.6-1.27s.41-.77.64-1.14c.09-.15.19-.29.29-.43a1,1,0,0,0,.08-.11c-.09.19-.13.16-.07.09s.13-.16.2-.23a3.45,3.45,0,0,1,.28-.26l.11-.09-.09.06.11-.08a4.44,4.44,0,0,1,.67-.38c.21-.11-.15,0,0,0l.16-.06a1.91,1.91,0,0,1,.34-.1l.2-.05.07,0c-.14,0,0,0,.07,0l.24,0a2.17,2.17,0,0,1,.37,0s-.26-.05-.07,0l.2,0c.06,0,.29.05.31.1s-.17-.08,0,0l.21.11.14.1c.12.07-.18-.16,0,0a2.39,2.39,0,0,1,.23.22s.1.13.12.13-.12-.18,0,0,.13.2.19.3,0,.11.06.14l-.05-.13a.49.49,0,0,1,0,.11l.09.28.06.3c0,.2,0-.19,0,0a1.5,1.5,0,0,1,0,.22q0,.31,0,.63l0,.36c0,.15,0-.25,0,0s0,.15,0,.23a14.27,14.27,0,0,1-.89,2.85c-.46,1.12-.9,2.25-1.27,3.41A36.55,36.55,0,0,0,13.83,56.6a36.14,36.14,0,0,0,4.34,13.56A36.54,36.54,0,0,0,26.8,80.57c.47.38.94.75,1.43,1.12a1,1,0,0,0,1.33-.36A1,1,0,0,0,29.21,80a1.33,1.33,0,0,0-.19-.14l-.05,0-.3-.24L28,79q-.66-.56-1.29-1.14c-.84-.77-1.64-1.59-2.4-2.44-.39-.43-.76-.87-1.12-1.31l-.48-.61c.14.18-.09-.12-.13-.18s-.21-.27-.31-.4C21.61,72,21,71.1,20.4,70.13s-1.13-2-1.62-3c-.11-.24-.22-.47-.32-.71s-.13-.29-.19-.43l-.06-.14c-.05-.11,0-.1,0,0s0-.09-.07-.14c-.21-.53-.42-1.06-.61-1.6a31.87,31.87,0,0,1-1-3.29c-.16-.62-.29-1.24-.41-1.87-.06-.32-.12-.63-.17-1,0-.14-.05-.28-.07-.43l0-.21c0-.05,0-.36,0-.13a36.05,36.05,0,0,1-.18-7.63c0-.3.05-.61.09-.91s0-.29.05-.44l0-.26s0-.31,0-.08c.09-.64.19-1.27.31-1.9a33.71,33.71,0,0,1,.93-3.72c.37-1.21.82-2.37,1.29-3.53a15.69,15.69,0,0,0,.92-2.84,5.87,5.87,0,0,0-.1-3.14,3.68,3.68,0,0,0-2.46-2.32,4.62,4.62,0,0,0-3.39.5,5.52,5.52,0,0,0-2,2.05A20.82,20.82,0,0,0,10,35.48c-.39.9-.76,1.82-1.08,2.75-.11.33-.21.65-.29,1a1,1,0,1,0,1.88.52"/><path class="cls-1" d="M19.48,34.62l.1-.09c.15-.15-.14.08,0,0l.22-.14s.23-.14.26-.13-.24.09-.06,0l.15,0,.29-.07.12,0s-.25,0-.06,0a5.76,5.76,0,0,1,.59,0l.13,0h-.06l.26,0,.29.08.13,0s.24.11.1,0l.16.08.26.15.22.15c.09.06,0,.06,0,0a.7.7,0,0,0,.16.13,5.23,5.23,0,0,1,.39.42c.13.15,0,0,0,0s.07.1.08.12a3.28,3.28,0,0,1,.2.31c.05.09.1.17.14.26l.08.17c.06.12-.06-.16,0,0s.16.42.22.64a6.19,6.19,0,0,1,.13.62,1,1,0,0,1,0,.15s0-.18,0,0,0,.25,0,.37a7.94,7.94,0,0,1,0,1.29,1.49,1.49,0,0,1,0,.21s0,.22,0,.1,0,.07,0,.1l0,.22c-.05.28-.11.55-.17.81-.12.51-.27,1-.42,1.51-.29,1-.6,1.89-.85,2.86a31.82,31.82,0,0,0-.89,5.13,33.91,33.91,0,0,0,.63,10.2,35.2,35.2,0,0,0,3.58,9.62A32.77,32.77,0,0,0,32,78c.3.29.61.56.92.83a1,1,0,1,0,1.38-1.38,29.72,29.72,0,0,1-3.59-3.68l-.39-.47c-.06-.09-.13-.17-.2-.26s.13.17,0,0L30,72.87c-.25-.33-.5-.67-.74-1-.5-.71-1-1.45-1.41-2.2s-.82-1.47-1.19-2.23c-.19-.39-.37-.79-.55-1.18L26,66s0-.09,0-.13c.08.2,0,.08,0,0-.09-.21-.17-.42-.26-.64a34,34,0,0,1-1.51-4.88c-.2-.83-.36-1.67-.49-2.52,0-.11,0-.22,0-.33s0-.36,0-.09c0-.22-.05-.44-.08-.65-.05-.43-.08-.87-.12-1.3a33.4,33.4,0,0,1,0-5.1c0-.42.08-.84.13-1.26a1.1,1.1,0,0,0,0-.18c0-.14,0,.19,0,0s0-.22,0-.32.07-.43.11-.65c.14-.83.31-1.66.52-2.48a44.7,44.7,0,0,0,1.6-6.22,7.16,7.16,0,0,0-1.51-5.52,4.69,4.69,0,0,0-5-1.33,4,4,0,0,0-1.27.79,1,1,0,0,0,0,1.38,1,1,0,0,0,1.38,0"/><path class="cls-1" d="M25.86,38.07c.56-.73,1.68-.44,2.35-.07a3.35,3.35,0,0,1,1.67,3.06A24.29,24.29,0,0,1,29,46.28a23.39,23.39,0,0,0-.4,4.57,28.35,28.35,0,0,0,6.23,16.87A36.93,36.93,0,0,0,49.64,78.57a52,52,0,0,0,8.87,2.82,34.17,34.17,0,0,1,7.57,2.24,7.71,7.71,0,0,1,4.61,5.84,27.1,27.1,0,0,1,.08,4.85c0,1.38-.07,2.75-.1,4.12q-.24,8.94-.41,17.87c-.25,11.91-.45,23.83-.68,35.74-.09,5-.18,10-.3,15h2q.12-5.9.23-11.79c.24-12.09.44-24.19.69-36.29q.18-9.18.4-18.35c.08-3,.25-6,.22-9s-.82-6.08-3.3-8.12a18.1,18.1,0,0,0-7.24-3.23C59.38,79.53,56.49,79,53.68,78a37.68,37.68,0,0,1-16-10A26.63,26.63,0,0,1,30.6,51.3,21.33,21.33,0,0,1,31,46.58a28.51,28.51,0,0,0,.88-5.25,5.75,5.75,0,0,0-1.44-4.09,5.12,5.12,0,0,0-3.25-1.55,3.3,3.3,0,0,0-3,1.4,1,1,0,1,0,1.68,1"/><path class="cls-1" d="M103.93,167q-.25-9-.53-18c-.23-7.46-.5-14.92-.86-22.37-.18-3.49-.37-7-.61-10.47-.27-4.07-.83-8.47,1.27-12.2,4.21-7.47,13.94-8.7,21.12-11.78A34.11,34.11,0,0,0,140.73,76.7c4.08-7.68,5.42-16.51,4.81-25.12a65,65,0,0,0-.89-6.95,43.24,43.24,0,0,0-1.5-6.46c-.63-1.84-1.8-3.6-3.79-4.1a3.5,3.5,0,0,0-4.22,2.19,7.49,7.49,0,0,0,.45,4.84,58.84,58.84,0,0,1,2,6.06,35,35,0,0,1-10.45,34,34.92,34.92,0,0,1-4.53,3.51c-1,.69-.08,2.38,1,1.69A37.63,37.63,0,0,0,138,68.72a37.13,37.13,0,0,0,.55-25.35c-.58-1.69-1.5-3.36-1.65-5.16a2.49,2.49,0,0,1,.36-1.79,1.72,1.72,0,0,1,2.16-.26c1.77.88,2.14,3.36,2.55,5.08A64.76,64.76,0,0,1,143.22,48c1.13,8.58.49,17.63-3.13,25.58a33.19,33.19,0,0,1-14.82,16.05c-7.26,3.67-16.19,4.41-21.88,10.79a14.23,14.23,0,0,0-2.84,4.74,18,18,0,0,0-.83,6.51c.08,3.59.44,7.19.64,10.77.41,7.31.69,14.63.94,22,.26,7.54.41,15.08.64,22.62"/><path class="cls-1" d="M137,39a17.4,17.4,0,0,0-.82-2.33,28.43,28.43,0,0,0-1.32-2.79,8,8,0,0,0-1.53-2.16,5.13,5.13,0,0,0-3.18-1.39,3.64,3.64,0,0,0-3,1.28,4.3,4.3,0,0,0-.93,3c.09,2.23,1.17,4.22,1.9,6.28a34.54,34.54,0,0,1,1.06,3.6c.15.62.29,1.24.4,1.88l.15.86c0,.15,0,.31.07.47l0,.22c0-.23,0,.08,0,.13a35.2,35.2,0,0,1,.16,7.54c0,.32-.05.63-.09.95,0,.15,0,.29,0,.44l0,.26c0-.18,0,0,0,.08-.09.64-.19,1.27-.32,1.9a35.64,35.64,0,0,1-.88,3.49c-.17.55-.36,1.09-.55,1.63-.09.24-.18.49-.28.73l-.15.4-.08.18s-.15.35,0,.12c-.43,1-.92,2-1.45,3s-1.11,1.94-1.73,2.87q-.48.72-1,1.41l-.23.31-.14.19c-.15.2.08-.11,0,0l-.55.7a36.21,36.21,0,0,1-4.77,4.82l-.61.49-.31.24,0,0-.18.14a1,1,0,0,0,1,1.69,37,37,0,0,0,9.19-10,35.93,35.93,0,0,0,4.91-12.88A37.24,37.24,0,0,0,131,43.6,36.39,36.39,0,0,0,129.88,40c-.37-1-.84-2-1.19-3.08a11.86,11.86,0,0,1-.4-1.41l-.06-.34s0-.16,0-.2,0,.25,0,.06a5.63,5.63,0,0,1,0-.71c0-.12,0-.23,0-.35a.39.39,0,0,0,0-.15.59.59,0,0,0,0,.14.5.5,0,0,1,0-.12l.06-.3a2.19,2.19,0,0,0,.12-.33s-.11.21,0,.07l.08-.15c0-.09.11-.17.16-.25s-.12.11,0,0a1,1,0,0,1,.1-.11s.21-.26.27-.26l-.09.08.11-.08.12-.07.18-.1c.17-.09-.06,0-.06,0s.3-.09.35-.1l.17,0c.19,0-.22,0,0,0h.57c.11,0,.09,0,0,0,0,0,.28,0,.33.07a2.64,2.64,0,0,1,.4.12l.13,0c-.22-.13,0,0,0,0l.31.16a2.9,2.9,0,0,1,.29.19l.06,0,0,0s.15.12.16.13a5.4,5.4,0,0,1,.41.42.31.31,0,0,0,.08.11c-.16-.13-.11-.15-.05-.06l.18.25a17.28,17.28,0,0,1,1.29,2.35c.11.21.21.43.3.65a2.63,2.63,0,0,1,.15.35l.06.12c-.12-.26,0,0,0,.07.16.4.32.81.46,1.22a10.37,10.37,0,0,1,.31,1A1,1,0,0,0,137,39"/><path class="cls-1" d="M127.58,33.24a4.37,4.37,0,0,0-5.23-.32A6.16,6.16,0,0,0,119.77,38a19.08,19.08,0,0,0,1.28,6.23c.26.85.48,1.7.66,2.57.09.41.17.82.24,1.24,0,.2.07.4.09.61s0,.19,0,.28,0,0,0,0l0,.21a32.58,32.58,0,0,1,.22,5.13c0,.84-.09,1.69-.19,2.53,0,.21,0,.43-.07.65,0,0,0-.23,0,0s0,.1,0,.14,0,.24,0,.36c-.07.42-.14.84-.22,1.25A33.2,33.2,0,0,1,120.45,64c-.15.41-.3.82-.46,1.23-.07.19-.15.38-.23.57l0,0c.06-.15,0,.07,0,.08s-.09.22-.14.33c-.34.77-.72,1.54-1.12,2.28a31.07,31.07,0,0,1-2.77,4.32l-.08.12s-.06.12,0,0a1.24,1.24,0,0,1-.17.23c-.15.18-.29.36-.44.53-.26.33-.54.65-.82,1-.58.64-1.18,1.25-1.8,1.84l-.94.85a1,1,0,0,0,0,1.38,1,1,0,0,0,1.38,0A32.3,32.3,0,0,0,119.34,71a34.94,34.94,0,0,0,4.92-19.65,33.46,33.46,0,0,0-.7-5.17c-.41-1.91-1.13-3.74-1.57-5.65q-.09-.34-.15-.72l-.06-.36c0,.18,0,0,0,0l0-.26a7.28,7.28,0,0,1,0-1.32c0-.1,0-.21,0-.31s0-.23,0,0c0,0,0-.11,0-.15q.06-.33.15-.66c.06-.19.12-.38.19-.56s0,0,0,0a.85.85,0,0,1,.08-.17l.16-.29a2.61,2.61,0,0,1,.17-.28l.09-.12c.07-.12-.11.12,0,0a3.94,3.94,0,0,1,.44-.47s.09-.11.12-.11l0,0,.23-.15a1.71,1.71,0,0,1,.23-.13l.12-.07c.08,0,.22,0,0,0,.18,0,.36-.13.55-.17l.26-.06c.06,0,.15,0,0,0h.1a5.23,5.23,0,0,1,.56,0c.15,0-.06,0-.07,0l.13,0,.32.08.12,0c.14,0-.06,0-.06,0a.72.72,0,0,1,.23.12l.22.13c.18.12-.12-.1,0,0l.13.11a1,1,0,0,0,1.38-1.38"/><path class="cls-1" d="M121.5,37.09c-1.61-2.13-4.61-1.59-6.28.21-2.43,2.62-1,6.46-.46,9.5,1.14,6.2-.7,12.65-4.12,17.83A33.89,33.89,0,0,1,96,76.48a49.26,49.26,0,0,1-9.16,3A39.94,39.94,0,0,0,79,81.78a9.85,9.85,0,0,0-5.45,5.59c-1,3-.56,6.45-.48,9.56q.24,9.09.44,18.17.41,18.45.78,36.9.17,7.51.34,15h2c-.09-3.39-.16-6.77-.24-10.16q-.39-17.77-.75-35.55-.19-9-.41-17.93c-.07-2.85-.15-5.7-.22-8.55s-.48-6.35,1.5-8.82c1.62-2,4.19-3,6.59-3.63,2.76-.77,5.57-1.25,8.31-2.09a41.75,41.75,0,0,0,16.26-9.07,29.62,29.62,0,0,0,9-16,24.37,24.37,0,0,0,0-9.09c-.48-2.5-2-6.56.85-8.17.67-.37,1.79-.66,2.34.07a1,1,0,0,0,1.34.35,1,1,0,0,0,.35-1.33"/><path class="cls-1" d="M60.31,55.65c2.23,1.61,4.39,3.34,6.75,4.75a20.8,20.8,0,0,0,3.42,1.67,17.66,17.66,0,0,0,3.92,1,23.45,23.45,0,0,0,7.24-.21,18.44,18.44,0,0,0,6.54-2.45,12.15,12.15,0,0,0,4.6-5c.14-.31.27-.62.39-.94a1,1,0,0,0-.94-1.24Q86.1,53.05,80,53.12t-12.26.35q-3.45.15-6.9.36l.69,1.67c.4-.39.81-.77,1.24-1.13l.31-.25.19-.15.09-.07c-.12.08.09-.07.09-.07l.16-.12.36-.26A22.11,22.11,0,0,1,66.8,51.7c.5-.26,1-.5,1.52-.72-.22.1,0,0,.06,0l.15-.06.41-.17.79-.28A24.3,24.3,0,0,1,73,49.59l.83-.13a1.25,1.25,0,0,1,.19,0c.26,0-.14,0,0,0l.44-.06c.55,0,1.1-.1,1.65-.11a13.76,13.76,0,0,1,1.57,0c.26,0,.53,0,.79.06l.39,0,.19,0c-.25-.05,0,0,0,0a25.09,25.09,0,0,1,3.23.7c.54.16,1.08.33,1.61.52l.79.3.37.14.19.08c.21.08-.13-.06.06,0a30.37,30.37,0,0,1,3.37,1.7c.52.31,1,.64,1.53,1l.74.53.12.09s.3.22.09.07l.35.28a1,1,0,1,0,1.38-1.38,27.93,27.93,0,0,0-5.86-3.63,27.6,27.6,0,0,0-6.68-2.16,22.32,22.32,0,0,0-3.45-.37,21.78,21.78,0,0,0-3.52.26,24.13,24.13,0,0,0-13.29,6.56,1,1,0,0,0,.69,1.66q6.12-.37,12.25-.56t12.26-.17c2.3,0,4.61,0,6.91.07l-.94-1.23-.07.18,0,.09,0-.09c0,.09-.13.3-.17.38-.12.25-.25.49-.38.73s-.27.44-.42.65a3.46,3.46,0,0,1-.22.31s-.08.09-.07.1.12-.16.05-.08l-.13.17a11.23,11.23,0,0,1-1.06,1.12L88.2,58l-.07.06L88.2,58s-.13.1-.15.11l-.33.24a13.79,13.79,0,0,1-1.38.85l-.74.37-.36.16s-.12.08-.17.08l.08,0-.12,0a19,19,0,0,1-3.22,1L81,61,80.6,61l-.2,0-.14,0-.13,0-.2,0-.44,0-.83.06a22.57,22.57,0,0,1-3.39-.05l-.48,0-.24,0s-.15,0,0,0,0,0-.07,0c-.32,0-.65-.11-1-.18a15.17,15.17,0,0,1-1.79-.47l-.83-.29L70.48,60l.07,0a.25.25,0,0,0-.09,0l-.22-.1c-.54-.24-1.07-.51-1.59-.8a64.79,64.79,0,0,1-6.45-4.45L61.3,54a1,1,0,0,0-1.34.35,1,1,0,0,0,.35,1.33"/><path class="cls-1" d="M42.73,3.29,77.9,2.76l35-.51L132.64,2a1,1,0,0,0,0-1.95L97.46.52,62.47,1l-19.74.29a1,1,0,0,0,0,2"/><path class="cls-1" d="M90.89,1.52q-4,4.53-7.61,9.33t-6.83,9.67q-3.26,4.95-6.15,10.12a44.4,44.4,0,0,0-2.76,5.41,7.36,7.36,0,0,0-.2,5.4,4.5,4.5,0,0,0,3.9,3A3.9,3.9,0,0,0,75,41.78a3,3,0,0,0,0-1.36l-1.78.76a5.58,5.58,0,0,0,3.4,3,5.38,5.38,0,0,0,4.53-.67,5.46,5.46,0,0,0,1.84-2l-1.78-.75a3.56,3.56,0,0,0,2.55,4,3.6,3.6,0,0,0,4.15-2.28,1,1,0,0,0-.69-1.2,1,1,0,0,0-1.2.68c-.07.2.09-.15,0,0s-.07.14-.11.2-.14.22-.06.09,0,.05-.07.08l-.16.16-.05.05,0,0c0,.07-.26.17-.33.21s-.14.09-.18.08l.08,0-.09,0c-.13,0-.27,0-.39.09.15,0,.18,0,.07,0h-.07a1.21,1.21,0,0,1-.19,0H84.4l-.09,0-.2-.06c-.21-.07.06,0,0,0s-.34-.14-.37-.22l.09.07-.1-.09-.15-.14s-.12-.11-.13-.15.09.12,0,.06l-.06-.08a4,4,0,0,1-.2-.35c-.09-.19.06.17,0,0l-.06-.19a1.29,1.29,0,0,1,0-.19c0-.21,0,.19,0,0s0-.15,0-.23,0-.33,0,0a1,1,0,0,0-.57-1.15,1,1,0,0,0-1.21.39c-.07.13-.15.26-.23.38L81,41l-.1.13-.3.31-.19.16-.08.07s.15-.11,0,0a5,5,0,0,1-.8.48c-.17.08.14,0,0,0l-.2.07a3.94,3.94,0,0,1-.49.14l-.21,0c-.19,0,.17,0,0,0l-.47,0h-.27c-.14,0-.31,0-.46-.09A3.73,3.73,0,0,1,77,42.2l-.1,0c-.1,0,.07,0,.07,0s-.19-.09-.22-.11-.27-.15-.4-.23l-.18-.12-.09-.06c-.11-.08.13.11,0,0s-.27-.23-.39-.36l-.17-.18-.07-.08c-.1-.12,0,0,0,0a3,3,0,0,0-.28-.41,4,4,0,0,1-.25-.51,1,1,0,0,0-1.22-.4,1,1,0,0,0-.57,1.15c0,.18,0-.06,0-.08s0,.1,0,.12v.23c0,.18,0-.21,0,0s0,.16-.07.25,0-.06,0-.08a.54.54,0,0,0,0,.11l-.12.2-.06.09c.08-.13,0,0,0,0l-.1.11-.18.16s-.09.07-.09.08.16-.11.08-.06-.29.19-.44.27l-.11,0s.23-.09.06,0l-.2.07-.24.07-.09,0h-.09c-.08,0,0,0,.11,0a.72.72,0,0,0-.21,0H71c-.1,0,.11,0,.11,0s-.23,0-.3-.07l-.21-.07c-.12,0,.17.08.06,0l-.12-.06c-.17-.09-.31-.21-.47-.3,0,0,.14.13.07,0A.39.39,0,0,1,70,42l-.19-.18-.16-.17-.08-.1c.08.1.1.12,0,.07l0-.06c-.09-.14-.18-.27-.26-.42s-.09-.16-.13-.24l0-.12c-.08-.17,0,.13,0,0a6,6,0,0,1-.29-1c0-.25,0,.14,0,0l0-.27a5.81,5.81,0,0,1,0-.59c0-.1,0-.2,0-.3a1,1,0,0,0,0-.17c0,.19,0,0,0,0q.06-.36.15-.72a11.27,11.27,0,0,1,.42-1.28,1.11,1.11,0,0,0,.07-.16c-.07.16,0,0,0,0s.09-.21.14-.32.2-.43.31-.63c.21-.42.43-.84.65-1.25.45-.83.91-1.66,1.37-2.49q2.76-4.93,5.86-9.67t6.48-9.27c.29-.37.58-.75.86-1.13.14-.17.27-.35.41-.53l.08-.1c-.1.13,0,0,0,0l.24-.32c.58-.75,1.17-1.49,1.77-2.23,1.17-1.46,2.38-2.9,3.6-4.32l.93-1.07a1,1,0,0,0-1.38-1.38"/><path class="cls-1" d="M71.8,16.25c-.91.51-1.84,1-2.79,1.41l-.68.3L68,18.1c.16-.07,0,0,0,0l-.25.1q-.72.3-1.47.57a40.24,40.24,0,0,1-5.91,1.68c-.51.1-1,.2-1.55.28l-.74.12-.39,0h0l-.22,0c-1,.13-2.09.22-3.14.27a21,21,0,0,1-3.17-.11c-.19,0,0,0,0,0l-.22,0-.4-.07-.79-.17a10.78,10.78,0,0,1-1.36-.44l-.05,0-.13-.05-.3-.14c-.22-.11-.44-.23-.65-.36a5.93,5.93,0,0,1-.62-.4l-.12-.08c-.06,0-.23-.12,0,0a2.09,2.09,0,0,1-.29-.23,5.35,5.35,0,0,1-1-1.06s.12.17,0,0l-.13-.18-.18-.27a6.42,6.42,0,0,1-.37-.68,1,1,0,0,0-1.34-.35,1,1,0,0,0-.35,1.34,8.79,8.79,0,0,0,4,3.92,14.35,14.35,0,0,0,6.39,1.35,36.84,36.84,0,0,0,6.62-.64,42.65,42.65,0,0,0,6.19-1.61,42.13,42.13,0,0,0,6.73-3,1,1,0,0,0,.35-1.33,1,1,0,0,0-1.33-.36"/><path class="cls-1" d="M91,18.72a34.24,34.24,0,0,0,13.48,3.85,35.27,35.27,0,0,0,13.76-1.69,33.17,33.17,0,0,0,7.11-3.33,1,1,0,0,0-1-1.68,32.29,32.29,0,0,1-3,1.65l-.71.33-.35.16-.22.09c-.08,0-.2.09,0,0-.52.22-1.06.42-1.59.62a34.21,34.21,0,0,1-6.56,1.63l-.19,0c-.06,0-.24,0,0,0l-.38.05-.89.1-1.67.12c-1.14.05-2.29.05-3.42,0-.55,0-1.09-.07-1.64-.12l-.85-.1-.15,0s-.31,0,0,0l-.46-.07c-1.1-.17-2.2-.39-3.28-.66a35.38,35.38,0,0,1-3.62-1.15l-.87-.35,0,0-.21-.1-.43-.19c-.59-.26-1.17-.55-1.74-.86a1,1,0,1,0-1,1.69"/><path class="cls-2" d="M58.59,40.19A10.18,10.18,0,1,1,48.41,30,10.18,10.18,0,0,1,58.59,40.19"/><path class="cls-2" d="M112.58,40.19A10.18,10.18,0,1,1,102.41,30a10.17,10.17,0,0,1,10.17,10.18"/></g></g></svg>