<svg xmlns="http://www.w3.org/2000/svg" viewBox="0 0 127.98 216.17"><defs><style>.cls-1{fill:#0916ff;}.cls-2{fill:#ff8040;}</style></defs><g id="Layer_2" data-name="Layer 2"><g id="Layer_1-2" data-name="Layer 1"><path class="cls-1" d="M75.48,216.17q-3.27-10.11-6.39-20.26c-1.21-4-2.4-7.93-3.52-11.92-1.65-5.89-3-11.85-4.52-17.78Q57.53,152.13,54,138c-.58-2.33-1.17-4.67-1.75-7a22.28,22.28,0,0,1-.91-5.55,5.51,5.51,0,0,1,1.89-4.57,4.27,4.27,0,0,1,4.75-.25c1.22.85,1.62,2.61,2.09,3.93s2.31.67,1.88-.52c-.55-1.53-1-3.28-2.21-4.47a5.69,5.69,0,0,0-4.84-1.41c-4,.59-5.69,4.36-5.49,8a31.88,31.88,0,0,0,1.11,6l1.83,7.32q1.8,7.17,3.58,14.33c3.12,12.49,6,25,9.7,37.4,2.48,8.34,5.11,16.65,7.79,24.94"/><path class="cls-1" d="M61.07,121.55a7.78,7.78,0,0,1-.32-1.17,5.67,5.67,0,0,1-.1-.57c0-.07-.06-.23,0,0a.77.77,0,0,1,0-.15c0-.11,0-.22,0-.33a14.47,14.47,0,0,1,0-2.55c0-.09,0-.18,0-.28s0-.1,0-.13c-.06.14,0,.15,0,.06s.06-.38.1-.57a5.79,5.79,0,0,1,.27-1l0-.1c0-.1-.07.17,0,0a2.71,2.71,0,0,1,.13-.3,5.86,5.86,0,0,1,.3-.55c.11-.18.22-.36.34-.53a.83.83,0,0,0,.08-.12c.06-.08,0-.09,0,0,0-.09.17-.2.23-.28a5.29,5.29,0,0,1,.41-.41l.21-.2.11-.09c.19-.15-.16.12,0,0a4.9,4.9,0,0,1,.48-.31l.29-.15s.17-.09,0,0,0,0,.08,0q.3-.1.6-.18l.29-.05c.15,0-.24,0,0,0l.19,0c.2,0,.41,0,.61,0a1,1,0,0,0,.29,0s-.23,0,0,0l.18,0a6,6,0,0,1,.61.15l.29.1.13,0s.28.1,0,0a5.29,5.29,0,0,1,1.12.61l.25.17.13.09c-.15-.13-.06,0,0,0s.35.29.51.45a6.33,6.33,0,0,1,.44.46,2.25,2.25,0,0,1,.21.24l.13.16c-.08-.1,0,0,0,0a13.26,13.26,0,0,1,1.54,2.75,1,1,0,0,1,.07.15l0,.07c0,.12.09.23.14.35l.27.73c.19.52.37,1,.55,1.56a1,1,0,1,0,1.88-.52,23.34,23.34,0,0,0-2.53-5.71,8.78,8.78,0,0,0-4.76-3.64,6.18,6.18,0,0,0-3.05-.12,5.94,5.94,0,0,0-2.66,1.42,7.78,7.78,0,0,0-2.45,4.57,14.87,14.87,0,0,0-.16,3.13,11.66,11.66,0,0,0,.57,3.16,1,1,0,0,0,1.2.68,1,1,0,0,0,.69-1.2"/><path class="cls-1" d="M71.55,113.68a5,5,0,0,1,.2-.87c0-.13.09-.26.13-.39s-.07.15,0,0l.1-.22a6,6,0,0,1,.45-.77l.12-.17s.15-.2.06-.1.06-.06.08-.08.12-.15.18-.21a7,7,0,0,1,.61-.61l.16-.13.08-.07-.06,0a1.75,1.75,0,0,0,.39-.28,6.93,6.93,0,0,1,.75-.43l.22-.1c.17-.08-.15.06,0,0l.42-.15a6.13,6.13,0,0,1,.87-.21s.25,0,.1,0h.11l.45,0h.45l.2,0c.23,0-.12,0,0,0a5.9,5.9,0,0,1,.83.2l.19.07.09,0-.09,0s.33.16.38.18c.24.14.47.3.7.45s-.06,0-.06,0l.07.06.15.13.34.31a8.22,8.22,0,0,1,.57.61s.18.22.09.12.09.11.11.15a3.39,3.39,0,0,1,.27.39c.19.29.36.58.52.88a9.3,9.3,0,0,1,.43.9s.06.13,0,0l0,0,.11.27.18.5a1,1,0,0,0,1.2.68,1,1,0,0,0,.68-1.2c-.88-2.51-2.4-5.12-5-6.2a7.19,7.19,0,0,0-7.69,1.71,7.43,7.43,0,0,0-2.17,4,1,1,0,0,0,.68,1.2,1,1,0,0,0,1.21-.68"/><path class="cls-1" d="M84.48,113.61c-3.38-10.21-6.69-20.46-9.15-30.94A118.9,118.9,0,0,1,72.59,67c-.31-3.27-.72-10,3.9-10.53,2.49-.29,4.64,1.6,5.75,3.64,1.22,2.23,1.61,4.83,2.13,7.29q1.17,5.53,2.45,11.06c1.89,8.2,3.92,16.37,6,24.52,4.78,18.44,10,36.79,15.33,55.07q8.31,28.32,17.23,56.48l.52,1.64h2q-8.61-27.18-16.71-54.52c-5.57-18.88-11-37.83-15.93-56.88Q92,92,89,79.22c-.88-3.79-1.74-7.59-2.55-11.39-1-4.52-1.68-10.09-6.22-12.48a6.28,6.28,0,0,0-6.34,0,7.69,7.69,0,0,0-3.11,5.09A21.92,21.92,0,0,0,70.64,67c.25,2.55.61,5.09,1,7.61,1.89,11,5.11,21.64,8.51,32.2.79,2.45,1.59,4.88,2.4,7.32.39,1.19,2.28.68,1.88-.52"/><path class="cls-1" d="M95.1,104.38l.4.16s.27.09,0,0l.14.06.76.37a13.86,13.86,0,0,1,1.4.82c.22.14.43.29.64.44l.28.21c-.2-.16,0,0,0,0l.22.17c.42.35.82.72,1.2,1.1s.72.76,1,1.16c.1.11.18.22.27.33s.09.11.14.17c-.13-.18-.05-.07,0,0,.18.23.34.46.51.69a19.94,19.94,0,0,1,1.65,2.87c.11.24.22.48.32.72-.1-.25,0,.11.07.17l.18.47c.19.51.36,1,.51,1.54s.28,1,.39,1.57l.15.81c0,.18.06.36.08.54l0,.17c0-.22,0,.15,0,.19a25.6,25.6,0,0,1,.15,4.11c0,.67-.07,1.34-.14,2l-.06.49,0,.27c0,.29,0-.12,0,.05,0,.34-.1.69-.16,1a44.11,44.11,0,0,1-2.59,8.91,1,1,0,0,0,.69,1.2,1,1,0,0,0,1.2-.68c2.09-5.25,3.48-11,3-16.67a21.92,21.92,0,0,0-5.55-13,16.73,16.73,0,0,0-6.39-4.33,1,1,0,0,0-.52,1.88"/><path class="cls-1" d="M17.89,65.9l10.32-.48,10.37-.49c3.39-.16,6.78-.27,10.16-.5a29.83,29.83,0,0,0,9.36-1.8,15.25,15.25,0,0,0,6.77-5.05c.2-.27.37-.54.54-.82a1,1,0,1,0-1.68-1c-.17.28-.35.56-.54.82l-.13.18c-.12.15,0,0,0,0a.31.31,0,0,1-.07.09c-.1.13-.21.25-.31.37a13.41,13.41,0,0,1-1.43,1.39l-.18.14-.08.07,0,0-.43.31c-.27.19-.54.37-.82.54a15.47,15.47,0,0,1-1.75.93l-.24.11c-.09,0-.2.1-.05,0-.15.07-.31.12-.46.18-.32.13-.64.24-1,.35-.73.23-1.48.43-2.23.59-.39.09-.78.16-1.17.23l-.55.08-.32,0-.13,0h0c-.79.1-1.59.18-2.39.25-3.33.26-6.67.35-10,.5l-10.18.48-10.17.48L17.89,64a1,1,0,0,0,0,2"/><path class="cls-1" d="M18.39,65.77q2-1.27,4.1-2.38c.7-.36,1.4-.71,2.11-1l1.08-.49.54-.24.27-.11.12,0c-.18.07,0,0,0,0a51.39,51.39,0,0,1,9.15-2.87c.77-.16,1.54-.3,2.32-.43l.58-.08.12,0h.08c-.12,0,0,0,0,0l.21,0,1.16-.13A38.63,38.63,0,0,1,45,57.69c1.54,0,3.07.21,4.6.35s3.12.24,4.68.29a33.78,33.78,0,0,0,9.51-.82c.35-.09.69-.19,1-.3a1,1,0,0,0-.52-1.89,18,18,0,0,1-2.16.56c-.38.08-.77.15-1.15.2l-.24,0-.17,0h.06l-.61.08a40.22,40.22,0,0,1-4.78.19c-1.58,0-3.16-.11-4.73-.24s-3.05-.31-4.58-.39a41.48,41.48,0,0,0-9.63.7,50.06,50.06,0,0,0-9.21,2.68,58.06,58.06,0,0,0-8.73,4.32l-1,.61a1,1,0,0,0,1,1.69"/><path class="cls-1" d="M17.4,65.77A37.86,37.86,0,0,0,27,70.65a35.33,35.33,0,0,0,10.58,1.9,29.39,29.39,0,0,0,10.2-1.5,31.21,31.21,0,0,0,8.8-4.65,33.07,33.07,0,0,0,7.1-7.22c.24-.33.46-.66.68-1a1,1,0,0,0-.35-1.33,1,1,0,0,0-1.33.35c-.22.33-.45.67-.69,1l-.33.46-.18.24-.09.12c-.09.11.14-.18,0,0-.5.64-1,1.25-1.57,1.85a31.29,31.29,0,0,1-3.51,3.3l-.44.36s-.15.11,0,0l-.12.09-.24.19-1,.71c-.67.46-1.36.89-2.06,1.29s-1.41.79-2.14,1.14c-.35.17-.71.33-1.07.48l-.14.06c-.13.06.15-.06,0,0l-.24.1-.6.24a28.29,28.29,0,0,1-4.59,1.32c-.4.08-.79.15-1.19.2a1.11,1.11,0,0,1-.3.05s.25,0,0,0l-.16,0-.65.08c-.87.08-1.74.13-2.62.15s-1.72,0-2.58-.07c-.44,0-.87-.06-1.31-.11l-.61-.07-.15,0-.37,0a35.76,35.76,0,0,1-5.1-1.14c-.84-.26-1.67-.55-2.49-.86l-.58-.23L25.4,68l-.16-.07-.07,0c-.39-.16-.78-.34-1.16-.52a36.81,36.81,0,0,1-4.55-2.53c-.36-.23-.72-.48-1.07-.73a1,1,0,0,0-1,1.69"/><path class="cls-1" d="M46.72,16.93a51.22,51.22,0,0,0-12.65,13,50.32,50.32,0,0,0-4.35,7.79,9,9,0,0,0-1,5.16,4.47,4.47,0,0,0,2.85,3.31,4.78,4.78,0,0,0,4.14-.3,5.62,5.62,0,0,0,2.57-3.49,6.48,6.48,0,0,0,.16-1.16A1,1,0,0,0,36.47,41a5,5,0,0,0,2.19,5.47,4.64,4.64,0,0,0,6-1A4.8,4.8,0,0,0,45.85,42l-1.92.26a4.4,4.4,0,0,0,5.42,3.35,1,1,0,0,0,.68-1.2,1,1,0,0,0-1.2-.68l-.31.08c-.21,0,.22,0,0,0h-.48a.47.47,0,0,0-.16,0s.24,0,0,0a6.09,6.09,0,0,1-.61-.17c-.2-.08,0,0,0,0l-.18-.09c-.09,0-.18-.1-.27-.15l-.14-.09,0,0c-.06,0,0,0,.07.06-.07,0-.19-.17-.24-.21l-.22-.23-.11-.13c-.08-.08.12.17,0,0a2.46,2.46,0,0,0-.17-.27c0-.06-.05-.12-.08-.17s0,.14,0,0a4.81,4.81,0,0,1-.18-.65,1,1,0,0,0-1.92.26,4.28,4.28,0,0,1,0,.62c0,.19,0-.06,0-.06a.55.55,0,0,1,0,.17l-.09.36-.09.25c-.08.21.07-.14,0,0a.67.67,0,0,1-.06.12,4.45,4.45,0,0,1-.33.55c-.13.19.1-.11,0,0l-.11.13-.18.2-.23.21a1.27,1.27,0,0,1-.13.11l.09-.07-.11.08a5.09,5.09,0,0,1-.5.3L42,45c-.1,0-.07,0,0,0a2,2,0,0,0-.32.11l-.29.07s-.14.05-.17,0,.25,0,.06,0a5,5,0,0,1-.68,0s.25,0,.07,0l-.12,0-.28-.07L40,45s.19.09.06,0l-.17-.09c-.06,0-.48-.24-.48-.3s.16.13.05,0l-.12-.11a2.39,2.39,0,0,1-.23-.22l-.2-.21-.08-.1.08.09L38.88,44a5.48,5.48,0,0,1-.31-.52l-.06-.12c-.11-.21,0,0,0,0a1.42,1.42,0,0,1-.11-.33c0-.1-.06-.2-.09-.3l0-.16v-.06c0-.11,0-.08,0,.07,0,0,0-.25,0-.31s0-.21,0-.32,0-.08,0-.12c0-.21,0,.19,0,0l.09-.37-1.91-.26c0,.07,0,.14,0,.21a.66.66,0,0,1,0,.14s0-.2,0-.09-.06.32-.1.48-.08.27-.13.4l0,.1c-.07.17,0,0,0,0s-.07.17-.1.22-.14.27-.22.4l-.12.17-.06.09,0,.06,0-.06c-.06,0-.23.26-.28.31l-.35.33c-.14.12.13-.09,0,0l-.2.13a3.84,3.84,0,0,1-.39.22s-.1.06-.13.06l.07,0-.19.07a3.74,3.74,0,0,1-.45.12s-.25,0-.09,0h-.59a.71.71,0,0,0-.2,0s.21,0,.1,0h-.1l-.45-.11-.18-.06-.13-.05s-.1-.06,0,0-.05,0-.09,0l-.2-.1c-.13-.07-.24-.16-.36-.23l.07,0-.1-.08-.16-.15c-.07-.06-.28-.23-.29-.32s.12.17.06.07L31,43.44l-.12-.19-.1-.2c-.08-.15.05.15,0,0a4,4,0,0,1-.16-.57c0-.08,0-.24,0-.07a2.83,2.83,0,0,0,0-.29,4.87,4.87,0,0,1,0-.54l0-.17s0-.16,0,0,0,0,0,0l0-.13c0-.19.08-.39.13-.59q.15-.54.36-1.08c0-.09.07-.19.11-.28s.1-.24,0-.09c.07-.18.15-.35.23-.53a49.65,49.65,0,0,1,4.09-7.38c.39-.59.8-1.16,1.21-1.73.21-.28.41-.56.62-.83l.07-.09.15-.18c.11-.15.22-.3.34-.44.88-1.1,1.81-2.16,2.77-3.19s2-2,3-2.94c.53-.47,1.06-.93,1.6-1.38l.81-.65.19-.14s.16-.12.06-.05,0,0,0,0l.44-.34.84-.61a1,1,0,0,0,.35-1.34,1,1,0,0,0-1.34-.35"/><path class="cls-1" d="M31.05,13.43c0,2.62-2.75,4.74-6.14,4.74s-6.14-2.12-6.14-4.74S21.52,8.7,24.91,8.7s6.14,2.12,6.14,4.73"/><path class="cls-1" d="M91.91,7.92c0,2.72-2.57,4.93-5.75,4.93s-5.75-2.21-5.75-4.93S83,3,86.16,3s5.75,2.2,5.75,4.92"/><path class="cls-1" d="M2.43,16.88c.22-.2.44-.39.67-.57L3.44,16l.18-.14.11-.09,0,0c.47-.35.94-.69,1.43-1A30.12,30.12,0,0,1,8.16,13q.78-.39,1.59-.75l.33-.14c-.24.09,0,0,0,0l.2-.08.88-.34a30.79,30.79,0,0,1,3.35-1c.57-.15,1.14-.27,1.71-.38l.79-.14.43-.07.22,0c.05,0,.38-.06.1,0a24,24,0,0,1,3.49-.27,31.5,31.5,0,0,1,3.5.13c.26,0,.53,0,.79.09l.22,0c.05,0,.3,0,0,0l.51.07c.57.09,1.15.19,1.72.31a28.16,28.16,0,0,1,3.79,1.08c.3.1.59.21.89.33l.47.19c.23.1-.19-.08,0,0l.27.11c.6.27,1.2.56,1.78.87a1,1,0,0,0,1-1.69,31,31,0,0,0-14.2-3.49A32.54,32.54,0,0,0,7.9,11,29.79,29.79,0,0,0,1.05,15.5a1,1,0,0,0,0,1.38,1,1,0,0,0,1.38,0"/><path class="cls-1" d="M1.05,16.88a25.45,25.45,0,0,0,14.76,5.79,24.78,24.78,0,0,0,14.69-4,25.26,25.26,0,0,0,6.41-5.92,1,1,0,0,0-.35-1.33,1,1,0,0,0-1.34.35c-.16.2.13-.16,0,0L35,12l-.29.36c-.19.23-.39.47-.6.69-.41.46-.84.9-1.28,1.32s-.89.81-1.35,1.18l-.33.27,0,0L31,16c-.24.19-.49.36-.74.54a24.57,24.57,0,0,1-3.17,1.86c-.25.13-.5.24-.76.36l-.42.19c.2-.08.06,0,0,0l-.28.11c-.57.23-1.15.44-1.73.62a23.4,23.4,0,0,1-3.5.82l-.23,0s-.3.05,0,0l-.46.05q-.48.06-1,.09c-.64,0-1.28.06-1.92.05s-1.22-.05-1.83-.1l-.48,0-.24,0s-.31,0-.06,0l-.95-.14a25.6,25.6,0,0,1-3.64-.94Q9,19.3,8.52,19.09l-.45-.18c-.25-.1.19.08-.06,0l-.29-.13c-.63-.28-1.26-.59-1.86-.92S4.61,17.1,4,16.69c-.29-.19-.57-.39-.85-.6L3,15.94l-.12-.09-.43-.35a1,1,0,1,0-1.38,1.38"/><path class="cls-1" d="M3.5,14l-2-1.41a1,1,0,0,0-.75-.1,1,1,0,0,0-.58.45,1,1,0,0,0-.1.75,1.06,1.06,0,0,0,.45.59l2,1.41a1,1,0,0,0,.76.09,1,1,0,0,0,.58-.44,1,1,0,0,0,.1-.76A1.08,1.08,0,0,0,3.5,14"/><path class="cls-1" d="M7.72,12A7,7,0,0,0,6.64,9.86a.75.75,0,0,0-.26-.27.67.67,0,0,0-.33-.18,1,1,0,0,0-.75.1A1,1,0,0,0,5,10.85a5.76,5.76,0,0,1,.79,1.36,1.6,1.6,0,0,0-.1-.23c.07.17.14.34.2.52a1,1,0,0,0,.45.59,1,1,0,0,0,.75.09,1,1,0,0,0,.58-.45,1,1,0,0,0,.1-.75"/><path class="cls-1" d="M13.86,9.15l-1-1.79a1,1,0,0,0-.58-.44,1,1,0,0,0-1.2.68,1,1,0,0,0,.09.75l1,1.79a1,1,0,0,0,.58.45,1,1,0,0,0,.75-.1A1,1,0,0,0,14,9.9a1,1,0,0,0-.09-.75"/><path class="cls-1" d="M20.63,8.56l.06-2.12a1,1,0,0,0-.28-.69,1,1,0,0,0-1.67.69l-.06,2.12a1,1,0,0,0,.28.69,1,1,0,0,0,1.67-.69"/><path class="cls-1" d="M26.54,9.08a6.3,6.3,0,0,0,.93-2.2,1,1,0,0,0-.09-.75,1,1,0,0,0-.59-.45,1,1,0,0,0-1.2.68,5.25,5.25,0,0,1-.32,1c0-.07.07-.15.1-.23a5.32,5.32,0,0,1-.51.94,1,1,0,0,0-.1.76,1,1,0,0,0,.44.58,1,1,0,0,0,.76.1,1.08,1.08,0,0,0,.58-.45"/><path class="cls-1" d="M33,11.09c.51-.55,1-1.1,1.51-1.66a1,1,0,0,0,0-1.38.94.94,0,0,0-.69-.28,1,1,0,0,0-.69.28c-.5.56-1,1.11-1.51,1.66a1.06,1.06,0,0,0-.28.69,1,1,0,0,0,.28.69,1,1,0,0,0,.69.29.94.94,0,0,0,.69-.29"/><path class="cls-1" d="M62.28,12.5c2.49-1.54,5-3.14,7.53-4.56a43.59,43.59,0,0,1,3.93-2l.11-.05s.15-.06,0,0,0,0,0,0l.12-.05.51-.21,1-.38q1-.36,2-.63a21.77,21.77,0,0,1,2.13-.45l.25,0,.11,0c-.15,0,.06,0,.1,0l.23,0c.3,0,.59-.06.88-.07a19.59,19.59,0,0,1,3.51.11l.1,0h-.09l.21,0,.47.08.85.17a17.71,17.71,0,0,1,1.73.47c.28.09.57.18.85.29l.38.15.19.08s.13.05,0,0l0,0a16.69,16.69,0,0,1,1.59.78,15.46,15.46,0,0,1,1.45.92l.33.23.1.08s-.15-.11-.06,0l.18.15c.23.18.44.37.66.56A12.24,12.24,0,0,1,95,9.3l.26.3s.15.2.06.09.08.09.11.13c.16.23.32.46.46.69s.3.49.44.74a1,1,0,0,0,1.69-1A14.58,14.58,0,0,0,93,5a19.08,19.08,0,0,0-6.87-2.65,20.56,20.56,0,0,0-7.7.08A32.18,32.18,0,0,0,70,5.62c-2.67,1.4-5.21,3-7.76,4.62l-.93.58a1,1,0,1,0,1,1.68"/><path class="cls-1" d="M61.3,12.5a37.3,37.3,0,0,0,14.23,4,38.53,38.53,0,0,0,14.55-1.6,36.41,36.41,0,0,0,7.59-3.34,1,1,0,1,0-1-1.68,34.35,34.35,0,0,1-3.19,1.65l-.76.34c-.24.1.19-.08-.06,0l-.21.09L92,12.2c-.57.22-1.14.43-1.71.62a34,34,0,0,1-3.42,1c-.56.14-1.13.25-1.7.36l-.86.14-.47.07-.15,0-.16,0c.13,0,.14,0,0,0a39.17,39.17,0,0,1-7.1.26c-.6,0-1.21-.09-1.81-.15l-.86-.1-.16,0c.25,0,0,0,0,0l-.47-.07c-1.17-.18-2.33-.42-3.48-.71a36.35,36.35,0,0,1-3.84-1.2l-1-.38L64.7,12c-.11-.05-.1,0,0,0l-.14-.06-.44-.19c-.62-.28-1.24-.58-1.85-.89a1,1,0,1,0-1,1.68"/><path class="cls-1" d="M64.57,9.5,62.93,7.6a1,1,0,0,0-1.37,0,.94.94,0,0,0-.29.69l0,.26a1,1,0,0,0,.26.43c.54.63,1.08,1.27,1.63,1.9a1,1,0,0,0,.69.29,1,1,0,0,0,.69-.29,1,1,0,0,0,.28-.69l0-.26a1,1,0,0,0-.25-.43"/><path class="cls-1" d="M69.35,7.59A3.76,3.76,0,0,0,69,4.9a1,1,0,0,0-1.33-.35,1,1,0,0,0-.35,1.33l.13.27a2.44,2.44,0,0,1-.1-.24,3.46,3.46,0,0,1,.19.7,2.34,2.34,0,0,1,0-.26,2.89,2.89,0,0,1,0,.72c0-.09,0-.17,0-.26a2.38,2.38,0,0,1,0,.26,1,1,0,0,0,.1.75,1,1,0,0,0,.58.45,1,1,0,0,0,.76-.1,1,1,0,0,0,.44-.58"/><path class="cls-1" d="M75.73,4.24v-2a1,1,0,0,0-.29-.7,1,1,0,0,0-.69-.28,1,1,0,0,0-1,1v2a1,1,0,0,0,.28.69,1,1,0,0,0,1.67-.69"/><path class="cls-1" d="M82,3l.6-1.77a1,1,0,0,0-.1-.75A1,1,0,0,0,81.86,0a1,1,0,0,0-.75.1,1.09,1.09,0,0,0-.45.58c-.2.59-.39,1.18-.59,1.77a1,1,0,0,0,.1.76,1,1,0,0,0,.58.45,1.06,1.06,0,0,0,.76-.1A1,1,0,0,0,82,3"/><path class="cls-1" d="M89.37,4.31l1.14-1.06a.66.66,0,0,0,.21-.31.91.91,0,0,0,.08-.37,1,1,0,0,0-.08-.38.66.66,0,0,0-.21-.31.94.94,0,0,0-.69-.29l-.26,0a1,1,0,0,0-.43.26L88,2.93a.75.75,0,0,0-.21.32.77.77,0,0,0-.08.37.81.81,0,0,0,.08.38.72.72,0,0,0,.21.31.94.94,0,0,0,.69.29l.26,0a1.06,1.06,0,0,0,.43-.26"/><path class="cls-1" d="M96.38,8.51,97.82,7a1,1,0,0,0,.29-.69,1,1,0,0,0-.29-.69,1,1,0,0,0-1.37,0L95,7.13a1,1,0,0,0-.28.69,1,1,0,0,0,.28.69,1,1,0,0,0,.69.29,1,1,0,0,0,.69-.29"/><path class="cls-2" d="M23.19,40.11A10.18,10.18,0,1,1,13,29.94,10.18,10.18,0,0,1,23.19,40.11"/><path class="cls-2" d="M78.66,37.57A10.18,10.18,0,1,1,68.48,27.39,10.17,10.17,0,0,1,78.66,37.57"/></g></g></svg>