<svg xmlns="http://www.w3.org/2000/svg" viewBox="0 0 142.9 232.31"><defs><style>.cls-1{fill:#0916ff;}.cls-2{fill:#ff8040;}</style></defs><g id="Layer_2" data-name="Layer 2"><g id="Layer_1-2" data-name="Layer 1"><path class="cls-1" d="M79.39,150.6a82.37,82.37,0,0,1-31.25-41.2,98.61,98.61,0,0,1-4.33-20,206.29,206.29,0,0,1-1.19-20.79c-.09-6.32-.11-12.65.39-19,1-12,4.08-24.14,12.44-33.16S75.51,2.59,87.57,2a58.14,58.14,0,0,1,20.12,2.63,48.82,48.82,0,0,1,16.1,8.21,37.34,37.34,0,0,1,10.83,14.34,72.32,72.32,0,0,1,4.83,18.12,130.78,130.78,0,0,1,0,39.55,128.64,128.64,0,0,1-11.71,37.71c-5.48,11.05-13.6,21.69-25.71,25.78a28.91,28.91,0,0,1-8.55,1.53,1,1,0,0,0,0,1.95c13-.3,23.85-9,30.83-19.38a94.4,94.4,0,0,0,9.05-17.74,131.22,131.22,0,0,0,6.06-19.36,134.22,134.22,0,0,0,3-40.75A111.36,111.36,0,0,0,139.34,35a48.36,48.36,0,0,0-8-17.21C123.51,7.56,110.52,2.18,98.07.51c-12.86-1.72-26.25.86-36.92,8.41A44,44,0,0,0,49,21.84a53.28,53.28,0,0,0-6.5,17.44,108,108,0,0,0-1.8,19c-.13,6.91,0,13.84.35,20.74.72,13.6,2.93,27.13,8.74,39.55A83.83,83.83,0,0,0,78.4,152.28c1,.71,2-1,1-1.68"/><path class="cls-1" d="M81.55,146.57c-.25,0,.15,0,0,0l-.2,0-.33-.1a3.46,3.46,0,0,1-.76-.31A13.9,13.9,0,0,1,78.41,145a33.4,33.4,0,0,1-4.27-3.71,69.89,69.89,0,0,1-8.81-10.82c-6.27-9.42-9.14-20.74-11.44-31.69-2.68-12.67-4.88-25.65-4-38.65.75-10.93,3.89-21.94,10.39-30.88,6.11-8.4,15.61-14.69,26.05-15.92a30.34,30.34,0,0,1,14.52,1.81,34.72,34.72,0,0,1,11.58,7.62c7.24,7.08,11.6,16.54,13.25,26.46,2.06,12.4.25,25.12-2.38,37.28-2.55,11.75-5.65,23.55-10.91,34.41-4.84,10-11.82,20.52-22.81,24.34a23.13,23.13,0,0,1-8,1.32,1,1,0,0,0,0,2,27.32,27.32,0,0,0,16.29-5.43,46,46,0,0,0,11.69-13c6.61-10.45,10.59-22.34,13.59-34.26,3.13-12.47,5.82-25.39,5.33-38.32-.41-11.08-3.4-22-10.12-31-6-7.92-14.48-13.93-24.47-15.17-10.75-1.34-21.64,3.13-29.49,10.34C56,29.44,51.1,40.36,49,51.42c-2.4,12.82-1.12,26,1.16,38.69,1.14,6.35,2.43,12.7,4.1,18.93a89.3,89.3,0,0,0,6.35,17.38,64.47,64.47,0,0,0,8,11.73A44.83,44.83,0,0,0,77.86,147a8.25,8.25,0,0,0,3.69,1.54,1,1,0,0,0,1-1,1,1,0,0,0-1-1"/><path class="cls-1" d="M99.39,166.78l-.16.23c-.1.15.11-.13,0,.06a3.32,3.32,0,0,1-.37.38l-.21.19c-.13.11.14-.1-.06,0a5,5,0,0,1-.45.29,4.31,4.31,0,0,1-.47.26l-.24.11a.52.52,0,0,1-.13.06s.16-.07,0,0c-.36.14-.72.27-1.09.38a42.72,42.72,0,0,1-5,1.07l-1.33.2-.67.1-.14,0-.36,0c-.9.12-1.82.22-2.72.31-1.8.19-3.6.34-5.4.51a102.27,102.27,0,0,0-10.89,1.4,46.5,46.5,0,0,0-5.19,1.34,10.46,10.46,0,0,0-4.55,2.48A4.74,4.74,0,0,0,58.68,181,4.88,4.88,0,0,0,62,183.77a18.88,18.88,0,0,0,4.62.53c1.89.08,3.77.1,5.66.08a108.29,108.29,0,0,0,22.45-2.68q2.75-.62,5.45-1.39a9.42,9.42,0,0,0,2.46-1,5.17,5.17,0,0,0,1.72-1.79,6.94,6.94,0,0,0,.69-4.65,10,10,0,0,0-2.22-4.35c-.25-.33-.51-.66-.77-1l-.35-.44-.1-.12s.12.15,0,0l-.18-.25a1,1,0,0,0-1.34-.35,1,1,0,0,0-.35,1.34c.5.67,1,1.32,1.55,2l0,0a1.13,1.13,0,0,1,.1.13c.06.08.12.15.17.23l.36.49c.22.33.44.67.63,1,.09.16.17.32.25.49a.42.42,0,0,0,0,.1c.06.13-.06-.15,0,0s.07.2.1.29a6.22,6.22,0,0,1,.26,1,.78.78,0,0,0,0,.14s0-.2,0-.09a2.11,2.11,0,0,0,0,.25,5.15,5.15,0,0,1,0,.56c0,.17,0,.33,0,.5l0,.24c0,.12,0-.08,0-.08a.55.55,0,0,1,0,.17,6.66,6.66,0,0,1-.27,1c-.06.16.07-.16,0,0l-.11.22a3.14,3.14,0,0,1-.28.46c0,.06-.09.11-.12.17.09-.16.08-.09,0,0l-.09.11-.37.36-.08.06c.14-.12,0,0,0,0l-.24.16a4.83,4.83,0,0,1-.55.3l-.15.07s-.14.06,0,0l-.08,0-.11,0c-.21.08-.43.15-.64.21-.41.13-.82.24-1.23.35-.88.24-1.77.48-2.67.7a108.61,108.61,0,0,1-10.73,2.07l-.32,0s-.34.05-.16,0l-.74.09-1.35.16c-.91.11-1.83.2-2.74.28q-2.73.24-5.46.33c-1.82.07-3.64.09-5.47.06s-3.43,0-5.12-.22l-.2,0c-.18,0,0,0,.06,0a.27.27,0,0,1-.13,0l-.5-.08c-.32-.07-.63-.15-.94-.25-.05,0-.41-.1-.42-.15s.22.1,0,0l-.08,0-.26-.13a3.6,3.6,0,0,1-.37-.22s-.11-.11-.15-.11.15.12.06,0l-.12-.1c-.1-.1-.19-.21-.29-.3s.06.07.06.07l-.07-.09a2.39,2.39,0,0,1-.13-.21,1.24,1.24,0,0,1-.1-.2c-.11-.21,0,.15,0,0s0-.17-.07-.25a.57.57,0,0,1,0-.14s0-.05,0-.07,0,0,0,.08a1.49,1.49,0,0,0,0-.21v-.29s0-.19,0-.22,0,.18,0,.05a1.49,1.49,0,0,0,0-.18,4.13,4.13,0,0,1,.15-.5s0-.09,0-.1-.07.15,0,0l.14-.27a4.08,4.08,0,0,1,.28-.44c0-.05.06-.15,0,0,0,0,0-.06.07-.09l.19-.22a4.18,4.18,0,0,1,.44-.4c.05-.05.18-.15.05-.05l.29-.21a10,10,0,0,1,1-.57l.26-.12c.06,0,.28-.12.1,0L64,176a39.58,39.58,0,0,1,5-1.43c1.71-.37,3.43-.66,5.16-.9-.19,0,.08,0,.14,0l.31,0,.67-.09,1.34-.15,2.59-.26c3.58-.34,7.15-.61,10.71-1.11,1.73-.24,3.46-.53,5.17-.92a12.47,12.47,0,0,0,4.31-1.6,5.81,5.81,0,0,0,1.66-1.69,1,1,0,1,0-1.68-1"/><path class="cls-1" d="M64.35,182.26a26.19,26.19,0,0,0-4,.29,8.2,8.2,0,0,0-3.62,1.62,7.11,7.11,0,0,0-2.69,6.62,5.22,5.22,0,0,0,1.8,3.07,8.54,8.54,0,0,0,3.4,1.64,26.31,26.31,0,0,0,4.06.59c1.54.13,3.08.19,4.63.19a82.42,82.42,0,0,0,18.49-2.39c3-.69,6-1.49,9-2.33,2.8-.8,5.73-1.56,8.18-3.21a9.67,9.67,0,0,0,4.42-6.26,11.56,11.56,0,0,0-1.91-7.8,15.8,15.8,0,0,0-1.19-1.63,1,1,0,0,0-1.38,0,1,1,0,0,0,0,1.39l.15.18s.18.24,0,.05l.24.32c.19.27.37.54.54.82a12.49,12.49,0,0,1,.85,1.62s.12.28,0,.07l.07.19c.06.14.11.29.16.43.11.3.2.61.28.92a5.69,5.69,0,0,1,.18.84,2,2,0,0,1,0,.24c0-.25,0,0,0,.06s0,.33,0,.49a8.64,8.64,0,0,1,0,.88c0,.13,0,.26,0,.39s0-.2,0,.06a1.85,1.85,0,0,1,0,.23,6.1,6.1,0,0,1-.22.84c0,.12-.09.24-.13.37s.09-.19,0,0-.08.19-.13.28a7.44,7.44,0,0,1-.38.68c-.09.14-.17.27-.26.39l-.09.13-.1.13c.07-.09.08-.1,0,0a13,13,0,0,1-1.21,1.25l-.37.3c-.14.12,0,0,0,0l-.19.14c-.26.19-.52.37-.79.53a13.26,13.26,0,0,1-1.79.94l-.25.11h0l-.51.21-1,.35c-.67.22-1.34.43-2,.63-2.82.82-5.64,1.6-8.49,2.3s-5.82,1.36-8.76,1.85q-1.08.18-2.16.33l-.49.07-.13,0-.3,0-1.08.13c-1.47.17-3,.29-4.42.36A55.89,55.89,0,0,1,62,194l-.42-.05c-.25,0,.22,0,0,0l-.15,0q-.45-.06-.9-.15a11.15,11.15,0,0,1-1.6-.44l-.42-.15c.2.09.08,0,0,0l-.19-.1a4.37,4.37,0,0,1-.76-.43c-.05,0-.37-.24-.15-.09a3.73,3.73,0,0,1-.3-.26l-.28-.28-.12-.13c-.16-.19.07.1-.05-.06a4.66,4.66,0,0,1-.4-.68s-.09-.22,0-.07,0-.07,0-.08a2.13,2.13,0,0,1-.13-.43c0-.09-.11-.29-.08-.37,0,.14,0,.15,0,0s0-.12,0-.18a4.58,4.58,0,0,1,0-.83s0-.25,0-.09,0-.06,0-.08l.09-.41a6.59,6.59,0,0,1,.25-.75c.08-.23-.1.19,0,0l.09-.19.17-.33a3.18,3.18,0,0,1,.48-.73s-.14.17,0,0l.13-.17.25-.27a6.07,6.07,0,0,1,.65-.59c-.17.14.05,0,.07,0l.14-.1.41-.26.35-.18.21-.11.05,0a9.74,9.74,0,0,1,1.68-.47l.38-.06c-.27,0,0,0,0,0l.16,0,.94-.07,1.84-.06a1,1,0,0,0,0-2"/><path class="cls-1" d="M61.26,193.94c-2.3.15-4.67,2.05-4.38,4.54s2.55,4.19,4.9,4.69a20.94,20.94,0,0,0,4,.34c1.36,0,2.72.07,4.09.09,2.72,0,5.45.05,8.17-.06a61.58,61.58,0,0,0,14.35-2.11A34.09,34.09,0,0,0,105.1,195a14.63,14.63,0,0,0,4.23-5.59,8.77,8.77,0,0,0-.14-6.89,8.61,8.61,0,0,0-.86-1.43,1,1,0,0,0-1.34-.35,1,1,0,0,0-.34,1.33,8.65,8.65,0,0,1,.85,1.44c.11.23,0-.12,0,0s0,.13.08.19l.12.34q.12.41.21.81l.06.34c0,.16,0-.24,0,0,0,0,0,.1,0,.15a7.5,7.5,0,0,1,0,.82c0,.25,0,.5,0,.74s0-.14,0,0l0,.2c0,.13,0,.26-.08.38a6,6,0,0,1-.2.76l-.12.34c0,.07,0,.13-.07.19s-.12.27,0,.06a13.13,13.13,0,0,1-.77,1.43c-.13.2-.26.41-.4.6l-.24.33c.11-.16,0,0,0,0l-.15.18a14.8,14.8,0,0,1-1.07,1.18c-.38.38-.79.75-1.2,1.09l-.32.26-.13.1s-.21.17-.09.08-.1.07-.1.07l-.13.1-.4.29a27.61,27.61,0,0,1-2.78,1.75,32.41,32.41,0,0,1-3.07,1.52l-.15.07s-.29.12-.09,0l-.31.13-.88.35q-.75.28-1.53.54A49.1,49.1,0,0,1,87,200.66l-1.67.27-.43.06-.17,0h-.08l-.86.11c-1.14.14-2.28.24-3.41.32-5.08.36-10.18.23-15.25.09-.59,0-1.17,0-1.76-.09l-.44,0c.18,0,0,0,0,0l-.26,0c-.3-.06-.59-.12-.87-.2l-.42-.13-.17-.06-.13-.05-.1,0-.13-.07a3.58,3.58,0,0,1-.39-.21l-.28-.19s-.18-.14,0,0l-.12-.1a7.14,7.14,0,0,1-.56-.54s-.08-.09-.11-.14c.1.17,0,.06,0,0a3.28,3.28,0,0,1-.2-.31A2,2,0,0,1,59,199s-.1-.15,0,0a.7.7,0,0,1-.08-.2,2,2,0,0,1-.09-.35.58.58,0,0,1,0-.14c0-.23,0,.22,0,0a1.82,1.82,0,0,1,0-.33s0-.15,0-.17c0,.13,0,.16,0,.09a.44.44,0,0,0,0-.1c0-.11.06-.22.1-.33s0-.16,0,0a.44.44,0,0,1,.08-.15,1.73,1.73,0,0,1,.15-.27l.12-.18-.06.09.09-.11a2.51,2.51,0,0,1,.47-.45c-.21.12,0,0,0,0a.57.57,0,0,0,.13-.08l.35-.2a1.19,1.19,0,0,1,.16-.08c-.17,0-.09,0,0,0a2.42,2.42,0,0,1,.35-.12l.36-.08s.18-.06-.05,0a.82.82,0,0,1,.22,0,1,1,0,0,0,1-1,1,1,0,0,0-1-1"/><path class="cls-1" d="M66.07,201.9a3.91,3.91,0,0,0-1.56,2.47,5.12,5.12,0,0,0,.29,2.82A7,7,0,0,0,69.74,211a21.51,21.51,0,0,0,7,.53,35.13,35.13,0,0,0,7.18-1.36,69.67,69.67,0,0,0,6.88-2.49c2.19-.91,4.37-1.84,6.51-2.85a37.41,37.41,0,0,0,5.75-3.25,22.82,22.82,0,0,0,2.66-2.16,13.57,13.57,0,0,0,1.73-2.12,17.85,17.85,0,0,0,2.31-5.29,16.9,16.9,0,0,0,.58-5.61,13.85,13.85,0,0,0-.2-1.44,1,1,0,0,0-1.2-.68,1,1,0,0,0-.68,1.2c0,.1,0,.21,0,.31a.51.51,0,0,1,0,.13c0,.17,0-.06,0-.07a1.75,1.75,0,0,0,0,.32l0,.32c0,.43,0,.85,0,1.28s0,.87-.08,1.31l0,.28s0,.25,0,.08,0,.06,0,.08c0,.24-.07.47-.11.7a19.39,19.39,0,0,1-.69,2.59c-.07.21-.15.43-.24.64l-.12.3a.78.78,0,0,1,0,.14c.11-.23,0,0,0,0-.19.41-.38.81-.59,1.21s-.43.76-.67,1.13c-.11.17-.23.33-.35.5l-.18.24c-.08.12.15-.19,0,0l-.12.15a14.09,14.09,0,0,1-2,1.9l-.29.23-.13.11c-.21.16.1-.07,0,0l-.64.48c-.43.3-.87.6-1.32.88-.9.57-1.83,1.08-2.78,1.57-1.9,1-3.87,1.82-5.83,2.66l-.8.35-.38.16c-.18.08-.06,0,0,0l-.26.11-1.63.67c-1.09.43-2.19.85-3.3,1.23a42.61,42.61,0,0,1-6.65,1.77l-.81.12c-.29,0,.12,0-.05,0l-.23,0-.44,0c-.57.06-1.14.1-1.72.12a22.46,22.46,0,0,1-3.38-.1l-.41-.05c-.19,0,0,0,0,0l-.23,0-.78-.13a13.15,13.15,0,0,1-1.37-.36,3.48,3.48,0,0,1-.64-.23c.22.12-.13-.06-.18-.08l-.34-.17-.57-.35-.15-.11c-.05,0-.19-.11,0,0a2.09,2.09,0,0,1-.28-.24c-.17-.16-.32-.32-.47-.49s0,0,0,0a.73.73,0,0,1-.09-.13,2.9,2.9,0,0,1-.19-.29,2.4,2.4,0,0,1-.11-.23l0-.06c0-.09,0-.07,0,.06a.61.61,0,0,1,0-.12,6.13,6.13,0,0,1-.18-.61s0-.22,0-.25,0,.21,0,0a.81.81,0,0,0,0-.16c0-.2,0-.4,0-.6s.07-.09,0,.05a.69.69,0,0,0,0-.13l.06-.27.09-.26s0-.21,0-.05,0,0,0-.07l.14-.24a.86.86,0,0,0,.07-.1c.11-.17-.12.12,0,0l.18-.2s.32-.26.09-.08a1,1,0,0,0,.35-1.34,1,1,0,0,0-1.34-.35"/><path class="cls-1" d="M92.55,151.11c1.56,4.32,3.13,8.65,5.06,12.82.54,1.16,1.11,2.31,1.72,3.45a1,1,0,0,0,1.33.35,1,1,0,0,0,.35-1.34c-1.05-2-2-4-2.88-6.09-.12-.27,0,.1,0-.06a1.22,1.22,0,0,0-.07-.17l-.15-.37-.35-.84c-.2-.5-.4-1-.59-1.51-.41-1-.8-2.09-1.19-3.14l-1.32-3.62a1,1,0,1,0-1.88.52"/><path class="cls-1" d="M78,151.7c.7,5.14,1.56,10.26,2.33,15.38.21,1.43.42,2.85.61,4.27a1,1,0,0,0,1.2.68,1,1,0,0,0,.69-1.2c-.71-5.14-1.56-10.26-2.34-15.39-.21-1.42-.42-2.84-.61-4.26a1,1,0,0,0-1.2-.68,1,1,0,0,0-.68,1.2"/><path class="cls-1" d="M87.35,208.75a8.7,8.7,0,0,0,5.87,6.08,12.41,12.41,0,0,0,4.73.57,20.32,20.32,0,0,0,4-.66,11.81,11.81,0,0,0,5.75-3.41,13.84,13.84,0,0,0,3.45-7.73,23.36,23.36,0,0,0-1.48-9.5c-.13-.4-.26-.8-.4-1.2a1,1,0,0,0-1.2-.68,1,1,0,0,0-.68,1.2,45.19,45.19,0,0,1,1.35,4.57c.09.37.17.75.24,1.13l.09.51c0,.09,0,.17,0,.26a.59.59,0,0,0,0,.13c0,.15,0-.16,0,0a16.15,16.15,0,0,1,.14,2.2c0,.36,0,.73,0,1.09l-.06.54c0-.18,0,0,0,.07s0,.19,0,.29a11.19,11.19,0,0,1-.58,2.11,2.44,2.44,0,0,1-.1.24c0,.1,0,0,0,0a.61.61,0,0,0,0,.12c-.08.18-.17.36-.26.54s-.28.54-.44.8a12,12,0,0,1-.91,1.4l-.08.1.06-.07-.12.14c-.08.11-.17.21-.25.31s-.35.38-.53.56-.37.35-.56.51l-.29.24.08-.07-.07.06-.16.12a11.59,11.59,0,0,1-1.27.77l-.32.15-.19.09-.08,0,.07,0c-.24.08-.48.2-.72.28a17.83,17.83,0,0,1-3.29.76c-.06,0-.32,0-.06,0l-.22,0-.55.06c-.37,0-.74,0-1.11,0a10.39,10.39,0,0,1-1.12,0l-.26,0H95.6s-.16,0,0,0-.06,0-.09,0l-.12,0-.3,0A9.85,9.85,0,0,1,94,213l-.49-.17-.24-.09h0l-.15-.07a6.67,6.67,0,0,1-.88-.46l-.37-.24c-.07,0-.12-.09-.18-.13l-.09-.06c-.15-.11.08.07,0,0s-.47-.39-.69-.61-.22-.23-.32-.35a2.09,2.09,0,0,1-.14-.17l-.07-.08c-.08-.1,0,0,0,0a1.31,1.31,0,0,1-.27-.38c-.09-.13-.17-.27-.25-.4s-.15-.28-.22-.42l-.09-.2c0-.11,0,.06,0,.06a1.12,1.12,0,0,0,0-.13,7.3,7.3,0,0,1-.27-.91,1,1,0,0,0-1.2-.68,1,1,0,0,0-.68,1.2"/><path class="cls-1" d="M81.46,164.66a24.36,24.36,0,0,0-5.16-1.35,8.9,8.9,0,0,0-4.62.63,6.2,6.2,0,0,0-3.1,2.79,5,5,0,0,0-.23,3.87,4.2,4.2,0,0,0,3.1,2.88A1,1,0,1,0,72,171.6a2.09,2.09,0,0,1-.34-.08c-.07,0-.13-.05-.19-.06s.1,0,.1,0l-.1,0-.3-.17a.71.71,0,0,0-.14-.1c.13,0,.14.12.07.05l-.09-.07a2.83,2.83,0,0,1-.24-.25l-.12-.13s-.08-.1,0,0,0,0,0,0a5.58,5.58,0,0,1-.35-.63c0-.1,0,.09,0,.09a.54.54,0,0,0-.05-.11.84.84,0,0,1,0-.17c0-.12-.08-.24-.11-.37l0-.18s0-.06,0-.09,0,.07,0,.09a1.67,1.67,0,0,0,0-.39c0-.12,0-.24,0-.36a.71.71,0,0,0,0-.21s0,.22,0,.11,0-.07,0-.11a3.59,3.59,0,0,1,.08-.35l.06-.17a.49.49,0,0,1,0-.11c0-.12-.09.18,0,.07a5.59,5.59,0,0,1,.43-.75.76.76,0,0,1,.08-.11l0,.06.14-.15a3.11,3.11,0,0,1,.31-.32l.18-.16s.19-.17.09-.08l.09-.07.2-.14a8.94,8.94,0,0,1,.8-.44l.1,0-.07,0s.15-.06.19-.08l.48-.16a8.43,8.43,0,0,1,.9-.2l.1,0h-.08l.21,0a3.55,3.55,0,0,1,.46,0,7.62,7.62,0,0,1,1.17,0l.37,0,.13,0h0l.63.11c.43.09.86.2,1.29.32.87.24,1.73.54,2.58.83a1,1,0,0,0,1.2-.68,1,1,0,0,0-.68-1.2"/><path class="cls-1" d="M55.27,51.14q5.35-2.1,10.84-3.77t11.1-2.91q5.61-1.23,11.29-2l.7-.1.16,0,.43-.05q.72-.1,1.44-.18c1-.12,1.9-.22,2.84-.31q2.85-.29,5.7-.46c3.81-.23,7.64-.31,11.47-.24l1.45,0a1,1,0,1,0,0-2c-3.84-.11-7.69-.07-11.53.12s-7.66.54-11.48,1S82,41.46,78.17,42.26,70.68,44,67,45.07s-7.3,2.3-10.88,3.66l-1.35.53a1,1,0,1,0,.51,1.88"/><path class="cls-1" d="M80.84,42.88,79.67,53.19q-.57,5.13-1.16,10.26l-1.17,10.3a25,25,0,0,0-.32,5A7,7,0,0,0,78.71,83a4.38,4.38,0,0,0,3.89,1.47,3.87,3.87,0,0,0,3-2.43,3,3,0,0,0,.16-1l-1.67.69A3.73,3.73,0,0,0,90.47,78L88.83,79a4.58,4.58,0,0,0,4,1.32,4.3,4.3,0,0,0,3.18-2.53,4.6,4.6,0,0,0,.33-2.59,1,1,0,0,0-1.2-.68,1,1,0,0,0-.68,1.2c0-.29,0,0,0,.09v.27c0,.07,0,.14,0,.21s0,.09,0,0a.59.59,0,0,1,0,.13,3.62,3.62,0,0,1-.13.47s0,.09,0,.13c0-.12.06-.14,0,0s-.06.13-.1.19a3.54,3.54,0,0,1-.26.41q-.09.14,0,0l-.09.11-.19.2-.16.14,0,0-.11.08a4.64,4.64,0,0,1-.42.25c-.18.09.18-.07-.06,0l-.23.08-.27.06-.1,0c-.08,0-.05,0,.08,0-.08.07-.41,0-.52,0s-.2,0-.24,0h0l-.13,0-.47-.13L91,78.21l.07,0-.22-.11L90.65,78s-.14-.12-.17-.12l0,0-.11-.1-.19-.19a1,1,0,0,0-1.64,1,3.19,3.19,0,0,1,.13.44c.05.21,0-.19,0,0a2.35,2.35,0,0,1,0,.26v.2c0,.23,0-.22,0,0a3,3,0,0,1-.11.45l0,.1c0,.06,0,0,0-.08,0,.06-.07.15-.1.21a2.74,2.74,0,0,0-.23.36c.09-.11.1-.13,0,0l-.07.08s-.1.11-.16.16l-.08.06s0,0,.07,0-.15.11-.19.13l-.21.11c-.17.09.19,0,0,0s-.42.16-.45.12.23,0,0,0h-.47c-.2,0,.2,0,0,0l-.45-.13c-.19,0,.17.09,0,0l-.18-.09-.2-.12c-.2-.14.1.1,0,0a3.51,3.51,0,0,1-.33-.34,1,1,0,0,0-1.06-.2,1,1,0,0,0-.6.89c0,.06,0,.12,0,.19s0-.19,0,0,0,.12,0,.17-.08.26,0,.11,0,.06,0,.1a.86.86,0,0,1-.1.16l0,.07c0,.09,0-.08.06-.08s-.12.14-.14.16l-.27.25c-.08.07.07-.06.07,0l-.07,0-.19.12-.17.09-.08,0c-.09,0,.08,0,.09,0s-.38.13-.42.14l-.19.05h-.09c-.11,0,.1,0,.1,0a1.92,1.92,0,0,0-.41,0h-.18l-.43-.12-.13,0s.17.08.08,0L81,82.3l-.39-.23a.24.24,0,0,0-.08-.06c-.09-.07.06,0,.06,0s-.14-.12-.16-.14l-.33-.32L80,81.43a.7.7,0,0,0-.06-.09s.11.16,0,0-.17-.26-.25-.39a2.82,2.82,0,0,1-.21-.38l-.09-.2c0-.1,0,.07,0,.07a1.39,1.39,0,0,0-.06-.13,5.47,5.47,0,0,1-.27-1c0-.09,0-.18,0-.27s0-.16,0,0,0,0,0-.05c0-.2,0-.4-.06-.6a30.69,30.69,0,0,1,.37-4.78l1.11-9.82L81.54,54q.55-4.93,1.12-9.87c0-.4.09-.8.14-1.21a1,1,0,0,0-1-1,1,1,0,0,0-1,1"/><path class="cls-1" d="M57.84,61.67c.22-.21.45-.41.68-.6l.35-.29.12-.1c.08-.06.08-.06,0,0l.12-.1c.48-.36,1-.7,1.5-1a16.5,16.5,0,0,1,1.6-.87l.76-.35c.23-.1-.2.08,0,0l.21-.08.43-.17a20,20,0,0,1,3.51-.94l.45-.07a.36.36,0,0,1,.15,0h-.11l.15,0c.32,0,.65-.07,1-.09.57,0,1.15-.06,1.74,0a15.42,15.42,0,0,1,2,.16c-.26,0,0,0,0,0l.3.05.45.08c.35.07.69.14,1,.23a1,1,0,1,0,.52-1.88,20.17,20.17,0,0,0-14.94,2.15,19,19,0,0,0-3.47,2.58,1,1,0,0,0,0,1.38,1,1,0,0,0,1.38,0"/><path class="cls-1" d="M91.42,55.43c1.38-.73,2.77-1.45,4.18-2.12.36-.17.71-.33,1.07-.48l.5-.22.09,0,.34-.14c.7-.28,1.42-.55,2.15-.78s1.48-.44,2.23-.6c.35-.08.69-.14,1-.2l.25,0h.07c-.13,0,0,0,0,0l.53-.06a16.63,16.63,0,0,1,2.12-.08c.35,0,.71,0,1.06.06l.48.05.12,0c-.21,0-.06,0,0,0l.28,0a13.38,13.38,0,0,1,2.26.58l.53.2c.13,0-.15-.07,0,0l.14.06.26.12a10.9,10.9,0,0,1,1.06.58,1,1,0,0,0,1.34-.35,1,1,0,0,0-.35-1.34,14.81,14.81,0,0,0-8.66-1.94,26.94,26.94,0,0,0-9.2,2.56c-1.65.75-3.27,1.6-4.88,2.44a1,1,0,0,0-.35,1.34,1,1,0,0,0,1.34.35"/><path class="cls-1" d="M66.89,105.63c3,.9,6.32.29,9.31-.53a35.12,35.12,0,0,0,4.34-1.46l1.22-.53.5-.22.24-.11c.1,0,0,0,0,0l.2-.07a7.18,7.18,0,0,1,1-.34l.5-.11.29,0c.11,0,0,0,0,0l.17,0a6,6,0,0,1,1,0l.12,0c-.2,0-.06,0,0,0l.24,0a4.61,4.61,0,0,1,.53.15l.11,0s.15.06,0,0,0,0,0,0l.11,0,.51.26a6.14,6.14,0,0,0,1.09.46,3.12,3.12,0,0,0,2.37-.31,5.5,5.5,0,0,0,.81-.55l.32-.24s.21-.16.11-.09,0,0,0,0l.12-.09.21-.15a4.75,4.75,0,0,1,.85-.48l0,0a1.45,1.45,0,0,1,.25-.09A3.68,3.68,0,0,1,94,101l.45-.11.23,0,.12,0c.06,0,.21-.07,0,0a1.75,1.75,0,0,1,.46-.05l.52,0a17.41,17.41,0,0,1,2,.09l.53.06.24,0,.12,0c-.08,0-.13,0,0,0l1,.15c2.63.41,5.51,1.11,8-.09a4.54,4.54,0,0,0,.79-.49,1,1,0,0,0,.36-1.33,1,1,0,0,0-1.34-.35,4.52,4.52,0,0,1-.76.46s-.24.11-.11.06l-.11,0-.48.14-.42.1-.21,0h.08a.41.41,0,0,0-.15,0c-.31,0-.61,0-.92,0a15.7,15.7,0,0,1-2-.14c-.2,0,.14,0,0,0l-.23,0-.5-.08-1-.15c-2.75-.45-5.71-.94-8.36.2a8.47,8.47,0,0,0-1.8,1.15c-.15.11.11-.08,0,0l-.18.14a3.62,3.62,0,0,1-.41.27,1.18,1.18,0,0,1-.19.11l-.11.06-.12,0a.77.77,0,0,0-.24.06h0s-.31,0-.18,0l-.15,0-.26-.09c-.18-.06.11.06-.06,0l-.22-.11-.48-.24a6,6,0,0,0-2.34-.67,9.15,9.15,0,0,0-4.49,1l-1,.45-.09,0-.25.1-.57.23c-.7.27-1.4.51-2.11.73a36.7,36.7,0,0,1-4.49,1.09l-.31,0h-.1l-.58.07c-.37,0-.73.06-1.1.07s-.73,0-1.09,0l-.56,0h-.08l-.29-.05a9.26,9.26,0,0,1-1-.25,1,1,0,0,0-1.2.68,1,1,0,0,0,.68,1.21"/><path class="cls-1" d="M66.46,105.38c2.19,1.85,5,2.36,7.78,2.6,3.12.28,6.27.47,9.41.52a52.94,52.94,0,0,0,9.66-.64,33.13,33.13,0,0,0,7.87-2.32A24.59,24.59,0,0,0,108,101.1c.24-.23.48-.46.71-.7A1,1,0,0,0,107.36,99c-.46.47-1,.93-1.45,1.35l-.37.31-.19.14s-.24.19,0,.05c-.27.21-.55.41-.83.6a23.66,23.66,0,0,1-3.37,2c-.28.14-.57.27-.87.4l-.14.07s-.28.12-.06,0l-.52.22c-.62.24-1.25.47-1.89.67a33.1,33.1,0,0,1-3.8,1c-.69.14-1.39.25-2.08.35-.2,0-.07,0,0,0l-.28,0-.57.07-1.24.12c-1.55.13-3.11.19-4.68.19-3.13,0-6.25-.2-9.38-.42-.74-.06-1.49-.11-2.23-.2l-.23,0s-.4,0-.14,0l-.54-.09c-.34,0-.68-.12-1-.19s-.7-.18-1-.29a5.17,5.17,0,0,1-.51-.18l-.21-.08c-.1,0-.1,0,0,0l-.14-.06a7.66,7.66,0,0,1-.94-.5,4.4,4.4,0,0,1-.45-.3s-.24-.17,0,0l-.24-.2a1,1,0,0,0-1.38,1.39"/><path class="cls-1" d="M66.46,105.38a62.55,62.55,0,0,0,7.38,6.9,17.38,17.38,0,0,0,4.43,2.38,21.77,21.77,0,0,0,5.29,1.17,38,38,0,0,0,10.58-.56,20.13,20.13,0,0,0,5-1.52,12.63,12.63,0,0,0,4.09-3.12,25.32,25.32,0,0,0,3-4.33,23.66,23.66,0,0,0,1.17-2.56l.5-1.26.24-.6c0-.1.08-.19.11-.28a1.22,1.22,0,0,0,.07-.17c.06-.15-.09.21,0,0,.18-.4.36-.8.56-1.19a1,1,0,0,0-1.69-1c-.42.82-.77,1.68-1.11,2.54l-.48,1.22-.23.56c-.08.18,0,0,0,0a1.11,1.11,0,0,0-.07.16c0,.11-.1.21-.14.32a23.23,23.23,0,0,1-2.65,4.34s-.15.2,0,.07l-.21.26c-.13.17-.27.32-.4.48a12.33,12.33,0,0,1-.86.91l-.46.42-.22.19-.09.07-.1.08-.07.05-.1.07a2.48,2.48,0,0,1-.26.19c-.17.12-.34.22-.52.33-.35.21-.71.4-1.07.57l-.26.12-.15.07h0l-.08,0-.11,0-.34.13a17.84,17.84,0,0,1-2.37.69c-.79.18-1.59.31-2.39.43l-.33,0s-.15,0,0,0H92l-.64.08-1.29.14a34.58,34.58,0,0,1-5.19.12c-.43,0-.86-.06-1.28-.1l-.6-.07c.2,0-.06,0-.12,0l-.38-.06a21,21,0,0,1-2.5-.56c-.39-.12-.79-.25-1.17-.39-.21-.07-.4-.15-.6-.23,0,0-.15-.06,0,0l-.08,0-.32-.14a15.23,15.23,0,0,1-2-1.13c-.33-.22-.66-.45-1-.69l-.22-.16h0l-.1-.07-.51-.42c-.64-.52-1.26-1.08-1.87-1.65-1.18-1.1-2.31-2.27-3.43-3.43-.26-.27-.53-.54-.79-.82a1,1,0,0,0-1.38,0,1,1,0,0,0,0,1.39"/><path class="cls-1" d="M58.35,59.16A21.94,21.94,0,0,0,56.14,58a1.08,1.08,0,0,0-.75-.1,1,1,0,0,0-.58.45,1,1,0,0,0-.1.75,1,1,0,0,0,.45.59,24.21,24.21,0,0,1,2.21,1.13,1,1,0,0,0,.75.1,1,1,0,0,0,.59-.45,1,1,0,0,0-.36-1.33"/><path class="cls-1" d="M62.85,57.6a9.31,9.31,0,0,0-.2-2.47,1,1,0,0,0-.45-.58,1,1,0,0,0-1.34.35,1.14,1.14,0,0,0-.1.75c.05.21.08.42.11.63l0-.26a8.33,8.33,0,0,1,.06,1.58,1,1,0,0,0,1,1,1,1,0,0,0,1-1"/><path class="cls-1" d="M68.61,56.05a6.68,6.68,0,0,0,.43-2,1,1,0,0,0-1-1,1,1,0,0,0-.69.29l-.15.2a1,1,0,0,0-.14.49l0,.39,0-.26a5.89,5.89,0,0,1-.35,1.34.74.74,0,0,0,0,.39.69.69,0,0,0,.11.36,1,1,0,0,0,1.34.35l.2-.16a1,1,0,0,0,.25-.43"/><path class="cls-1" d="M74.51,56.83a7,7,0,0,0,.75-.88,5.47,5.47,0,0,0,.48-.8.85.85,0,0,0,.12-.37.74.74,0,0,0,0-.39,1,1,0,0,0-.45-.58,1,1,0,0,0-.75-.1,1,1,0,0,0-.58.45,5.35,5.35,0,0,1-.57.91l.15-.19a6.91,6.91,0,0,1-.51.57,1,1,0,0,0-.29.69,1,1,0,0,0,.29.69,1,1,0,0,0,.69.28,1.06,1.06,0,0,0,.69-.28"/><path class="cls-1" d="M92.13,53.12,90.9,51.93a1,1,0,0,0-.69-.29.69.69,0,0,0-.37.08.75.75,0,0,0-.32.21,1,1,0,0,0-.28.69,1.06,1.06,0,0,0,.28.69l1.23,1.19a1,1,0,0,0,.69.29.67.67,0,0,0,.37-.08.69.69,0,0,0,.32-.21.94.94,0,0,0,.28-.69,1,1,0,0,0-.28-.69"/><path class="cls-1" d="M99.57,50.81c0-.68,0-1.35,0-2a1,1,0,0,0-.28-.69,1,1,0,0,0-.69-.29,1,1,0,0,0-.69.29,1,1,0,0,0-.29.69c0,.68,0,1.35,0,2a1,1,0,0,0,.29.69,1,1,0,0,0,.69.29,1.05,1.05,0,0,0,.69-.29,1,1,0,0,0,.28-.69"/><path class="cls-1" d="M107.26,49.47a5.66,5.66,0,0,0,.27-.79,9.06,9.06,0,0,0,.19-1,.71.71,0,0,0-.08-.38.79.79,0,0,0-.2-.31,1,1,0,0,0-.7-.29,1,1,0,0,0-.69.29l-.15.19a1,1,0,0,0-.13.5v0c0-.09,0-.18,0-.26a5.88,5.88,0,0,1-.43,1.54.74.74,0,0,0,0,.39.72.72,0,0,0,.11.37,1,1,0,0,0,1.34.35l.2-.16a1,1,0,0,0,.25-.43"/><path class="cls-1" d="M113.46,52l1.1-1.36a.64.64,0,0,0,.2-.32.68.68,0,0,0,.09-.37.71.71,0,0,0-.09-.38.58.58,0,0,0-.2-.31,1,1,0,0,0-.69-.29l-.26,0a.94.94,0,0,0-.43.25l-1.1,1.36a.62.62,0,0,0-.2.31.73.73,0,0,0-.09.38.71.71,0,0,0,.09.38.62.62,0,0,0,.2.31,1,1,0,0,0,.69.29l.26,0a.94.94,0,0,0,.43-.25"/><path class="cls-2" d="M74.9,77A10.18,10.18,0,1,1,64.72,66.77,10.18,10.18,0,0,1,74.9,77"/><path class="cls-2" d="M118.65,71.14A10.18,10.18,0,1,1,108.48,61a10.17,10.17,0,0,1,10.17,10.18"/><path class="cls-1" d="M59.34,177.29Q56.72,180,54,182.72q-3.15,3.17-6.35,6.29-3.55,3.47-7.16,6.91-3.84,3.66-7.73,7.3t-8.08,7.46q-4.08,3.72-8.2,7.39T8.4,225.2q-3.83,3.3-7.73,6.55l-.67.56H3c1.58-1.32,3.14-2.64,4.7-4q4.06-3.47,8-7T24,214q4.11-3.72,8.17-7.5T40,199.12q3.69-3.51,7.36-7.06,3.3-3.21,6.57-6.46c1.88-1.88,3.76-3.78,5.61-5.69l1.18-1.23c.87-.91-.51-2.3-1.38-1.39"/><path class="cls-1" d="M76.07,209.88q-1.75,1.58-3.49,3.18l-4.43,4.13L63,222.05l-5.65,5.34-5.19,4.92H55l2.31-2.19L63,224.68l5.3-5c1.54-1.44,3.08-2.89,4.63-4.32,1.24-1.15,2.49-2.3,3.74-3.43l.75-.68a1,1,0,0,0,0-1.38,1,1,0,0,0-1.38,0"/></g></g></svg>