<svg xmlns="http://www.w3.org/2000/svg" viewBox="0 0 400.84 364.61"><defs><style>.cls-1{fill:#0916ff;}.cls-2{fill:none;stroke:#0916ff;stroke-miterlimit:10;stroke-width:8px;}</style></defs><g id="Layer_2" data-name="Layer 2"><g id="Capa_1" data-name="Capa 1"><path class="cls-1" d="M3.68,180.51a104.74,104.74,0,0,0,18.07,4.42,202.45,202.45,0,0,0,20.85,2.53c8.25.57,16.63.89,24.85-.13,14.73-1.82,28.33-7.52,42.63-11.11a73.51,73.51,0,0,1,21-2.51,83.55,83.55,0,0,1,20.1,3.54c14.31,4,28.14,9.35,43.11,10.48,15.69,1.19,30.65-2.89,45.47-7.54a166.16,166.16,0,0,1,20.59-5.5,69.28,69.28,0,0,1,20.73-.4c14.11,2,27.26,7.9,41.08,11.09,15.44,3.57,31.41,3,47,1A146.08,146.08,0,0,0,395.78,181c.47-.15.93-.3,1.39-.47a5.13,5.13,0,0,0,3.49-6.15c-.67-2.44-3.6-4.43-6.15-3.49a105,105,0,0,1-17.83,4.38,170.31,170.31,0,0,1-19.42,2.27c-7.84.51-16.15.83-23.77-.17-14.26-1.87-27.54-7.77-41.45-11.09a84.39,84.39,0,0,0-22-2.56,94.83,94.83,0,0,0-21.93,3.56c-13.88,3.79-27.55,9.44-41.9,10.49-15,1.1-29-2.9-43.2-7.38-14-4.4-28.1-8-42.88-6.14-14.58,1.79-28.06,7.51-42.22,11C63,179,47.46,178.33,32.18,176.46c-1.62-.2-1.8-.23-3.57-.49-1.56-.23-3.12-.49-4.67-.77-2.43-.43-4.85-.91-7.26-1.46-3-.69-6-1.45-9-2.4-.46-.15-.93-.3-1.39-.47-2.53-.93-5.47,1-6.15,3.49a5.11,5.11,0,0,0,3.5,6.15Z"/><path class="cls-1" d="M3.68,215.75a105.67,105.67,0,0,0,18.07,4.42,202.43,202.43,0,0,0,20.85,2.52c8.25.57,16.63.9,24.85-.12,14.73-1.83,28.33-7.52,42.63-11.11a73.88,73.88,0,0,1,21-2.52,83.57,83.57,0,0,1,20.1,3.55c14.31,4,28.14,9.34,43.11,10.48,15.69,1.19,30.65-2.89,45.47-7.55a166.12,166.12,0,0,1,20.59-5.49,69.28,69.28,0,0,1,20.73-.41c14.11,2,27.26,7.91,41.08,11.1,15.44,3.56,31.41,3,47,1a145.22,145.22,0,0,0,26.55-5.4c.47-.15.93-.3,1.39-.47a5.14,5.14,0,0,0,3.49-6.15c-.67-2.44-3.6-4.43-6.15-3.5a104.08,104.08,0,0,1-17.83,4.38,170.29,170.29,0,0,1-19.42,2.28c-7.84.5-16.15.83-23.77-.17-14.26-1.87-27.54-7.77-41.45-11.1a84.38,84.38,0,0,0-22-2.55,93.77,93.77,0,0,0-21.93,3.56c-13.88,3.78-27.55,9.44-41.9,10.49-15,1.1-29-2.91-43.2-7.39-14-4.4-28.1-7.95-42.88-6.14-14.58,1.79-28.06,7.52-42.22,11-14.92,3.72-30.42,3.07-45.7,1.19-1.62-.2-1.8-.22-3.57-.48-1.56-.24-3.12-.49-4.67-.77q-3.64-.65-7.26-1.46c-3-.69-6-1.46-9-2.41-.46-.15-.93-.3-1.39-.47-2.53-.92-5.47,1.05-6.15,3.5a5.12,5.12,0,0,0,3.5,6.15Z"/><path class="cls-2" d="M162.64,69,195.77,6.8a5.27,5.27,0,0,1,9.31,0L238.19,69a44,44,0,0,1,5.11,20.58c0,23.92-19.23,43.39-42.88,43.39s-42.88-19.47-42.88-43.39A44.11,44.11,0,0,1,162.64,69Z"/><path class="cls-2" d="M351.64,283.26l17.59-33a3.08,3.08,0,0,1,5.44,0l17.59,33A23.83,23.83,0,0,1,395,294.32a23.05,23.05,0,1,1-46.1,0A23.64,23.64,0,0,1,351.64,283.26Z"/><path class="cls-2" d="M180.11,283.26l17.6-33a3.07,3.07,0,0,1,5.43,0l17.59,33a23.72,23.72,0,0,1,2.75,11.07,23.06,23.06,0,1,1-46.11,0A23.76,23.76,0,0,1,180.11,283.26Z"/><path class="cls-2" d="M94.35,326.23l17.5-32.85a3.18,3.18,0,0,1,5.62,0L135,326.22a23.83,23.83,0,0,1,2.74,11.07,23.05,23.05,0,1,1-46.1,0A23.76,23.76,0,0,1,94.35,326.23Z"/><path class="cls-2" d="M265.88,326.23l17.49-32.85a3.19,3.19,0,0,1,5.63,0l17.49,32.84a23.72,23.72,0,0,1,2.75,11.07,23.06,23.06,0,1,1-46.11,0A23.65,23.65,0,0,1,265.88,326.23Z"/><path class="cls-2" d="M8.59,283.26l17.59-33a3.07,3.07,0,0,1,5.43,0l17.59,33A23.72,23.72,0,0,1,52,294.32,23.21,23.21,0,0,1,28.9,317.64,23.21,23.21,0,0,1,5.84,294.32,23.65,23.65,0,0,1,8.59,283.26Z"/><path class="cls-1" d="M200.42,118.64c9.45,0,9.47-14.29,0-14.29a14.57,14.57,0,0,1-14.29-14.8c0-9.45-14.29-9.46-14.29,0C171.84,105.59,184.66,118.64,200.42,118.64Z"/><path class="cls-1" d="M351.94,126.57V30.18c0-4.46.11-8.94,0-13.4a1.2,1.2,0,0,1,0-.19,5,5,0,1,0-10,0V113c0,4.47-.12,9,0,13.41v.19a5,5,0,0,0,10,0Z"/><path class="cls-1" d="M309.76,98.64l11,11,15.74,15.74c2.15,2.15,4.25,4.23,7.35,5a12.42,12.42,0,0,0,11.59-3c.35-.33.68-.67,1-1L371,111.79c4.3-4.3,8.68-8.53,12.9-12.91l.24-.24A5,5,0,1,0,377,91.57L366.5,102.11l-15.67,15.68-1.92,1.92-.41.4-.17.17c-.07.06-.37.26-.39.34,0-.09.78-.48.32-.27a2.43,2.43,0,0,0-.44.26c-.62.37.05-.14.27-.09-.19,0-.76.22-1,.28-.84.22,1.08,0-.16,0a2.12,2.12,0,0,0-.5,0s1,.22.5.08a4.63,4.63,0,0,0-1.13-.3c.05,0,.86.45.41.16a4.92,4.92,0,0,0-.45-.24c-.78-.4.52.56-.12-.06l-.3-.29c-.41-.39-.8-.8-1.2-1.19l-14.63-14.64c-4.16-4.16-8.26-8.4-12.49-12.49-.07-.07-.15-.14-.22-.22a5,5,0,1,0-7.07,7.07Z"/><path class="cls-1" d="M63.49,126.57V30.18c0-4.46.11-8.94,0-13.4a1.2,1.2,0,0,1,0-.19,5,5,0,1,0-10,0V113c0,4.47-.12,9,0,13.41v.19a5,5,0,0,0,10,0Z"/><path class="cls-1" d="M21.31,98.64l11,11L48,125.35c2.15,2.15,4.25,4.23,7.35,5a12.42,12.42,0,0,0,11.59-3c.35-.33.68-.67,1-1l14.56-14.56c4.3-4.3,8.68-8.53,12.9-12.91l.24-.24a5,5,0,1,0-7.07-7.07L78.05,102.11,62.38,117.79l-1.92,1.92-.41.4c0,.06-.11.11-.17.17s-.37.26-.39.34c0-.09.78-.48.32-.27a2.43,2.43,0,0,0-.44.26c-.62.37.05-.14.27-.09-.19,0-.76.22-1,.28-.84.22,1.08,0-.16,0a2.12,2.12,0,0,0-.5,0s1,.22.5.08a4.63,4.63,0,0,0-1.13-.3s.86.45.41.16a4.92,4.92,0,0,0-.45-.24c-.78-.4.52.56-.12-.06l-.3-.29c-.41-.39-.8-.8-1.2-1.19L41.09,104.28c-4.16-4.16-8.26-8.4-12.49-12.49-.07-.07-.15-.14-.22-.22a5,5,0,1,0-7.07,7.07Z"/></g></g></svg>