<svg xmlns="http://www.w3.org/2000/svg" viewBox="0 0 389.72 390.38"><defs><style>.cls-1{fill:#0916ff;}.cls-2,.cls-3{fill:none;stroke:#0916ff;stroke-miterlimit:10;}.cls-2{stroke-width:7px;}.cls-3{stroke-width:5px;}</style></defs><g id="Layer_2" data-name="Layer 2"><g id="Capa_1" data-name="Capa 1"><path class="cls-1" d="M166.68,210.66c-.05.14-.45,1.07-.07.22-.08.18-.16.36-.25.54-.2.44-.42.88-.65,1.31a24.29,24.29,0,0,1-1.5,2.42c-.16.23-.32.45-.49.67.07-.09.51-.61.07-.1-.3.35-.59.7-.9,1a21.53,21.53,0,0,1-1.94,1.88c-.2.17-1.32,1-.49.42-.36.25-.71.52-1.08.76A24.77,24.77,0,0,1,157,221.2l-1.07.51c-.82.39.78-.29-.07,0l-.49.19a24,24,0,0,1-2.62.81c-.8.2-1.61.35-2.43.49s.65,0,.09,0c-.22,0-.44.05-.65.07l-1.43.09c-.83,0-1.66,0-2.48,0-.44,0-.87-.07-1.31-.11-.67-.06.13,0,.22,0l-.9-.15a35.07,35.07,0,0,1-5-1.44c-.53-.18.83.39,0,0l-.48-.22q-.6-.28-1.17-.6a21.76,21.76,0,0,1-2.47-1.55l-.43-.31c.77.56.09.06-.09-.08-.41-.34-.82-.7-1.21-1.07-.73-.7-1.39-1.45-2.05-2.21s.29.46,0,0c-.17-.27-.39-.53-.57-.8s-.53-.79-.77-1.2a27.54,27.54,0,0,1-1.6-3.16c-.79-1.87-3.54-2.28-5.13-1.35-1.93,1.13-2.14,3.26-1.35,5.13a27.6,27.6,0,0,0,19.28,15.89,29.37,29.37,0,0,0,24.39-5.37,28,28,0,0,0,8.7-12.13A3.76,3.76,0,0,0,171.3,208a3.87,3.87,0,0,0-4.62,2.62Z"/><path class="cls-1" d="M276.78,210.48a26.46,26.46,0,0,1-1.57,3c-.31.51-.63,1-1,1.49-.07.1-.54.73-.15.23l-.45.55a23.22,23.22,0,0,1-2.44,2.52l-.52.46s-.75.62-.44.37-.39.29-.46.33l-.72.5a26.3,26.3,0,0,1-2.88,1.63l-.64.29c.61-.28-.11.05-.24.09-.54.22-1.1.41-1.66.58a27.71,27.71,0,0,1-3.27.76c-.7.13.19,0-.25,0l-.89.08c-.6,0-1.21.06-1.81.07l3.75,3.75h0a3.8,3.8,0,0,0-3.75-3.75c-.61,0-1.21,0-1.81-.07l-.72-.06c-1.13-.11.4.07-.24,0a26.5,26.5,0,0,1-3.29-.74c-.56-.17-1.11-.36-1.66-.56-.08,0-.93-.38-.53-.21l-.51-.24a24,24,0,0,1-2.88-1.64q-.66-.42-1.29-.9c.42.32,0,0-.2-.17l-.66-.58a26.07,26.07,0,0,1-2.32-2.38c-.19-.23-.38-.45-.56-.69.24.31.09.12-.05-.09-.34-.48-.68-1-1-1.48a25.39,25.39,0,0,1-1.66-3.19c-.81-1.86-3.53-2.29-5.13-1.35-1.91,1.12-2.16,3.27-1.35,5.13A28.6,28.6,0,0,0,257.41,231l-3.75-3.75h0a3.81,3.81,0,0,0,3.75,3.75,28.57,28.57,0,0,0,25.84-16.75,3.86,3.86,0,0,0-1.34-5.13c-1.59-.93-4.31-.52-5.13,1.35Z"/><path class="cls-1" d="M221.64,182h23c7.83,0,15.65,0,23.48,0a37.58,37.58,0,0,1,14,2.6l.74.29.37.15c-.23-.1-.22-.09,0,0,.61.27,1.21.55,1.8.85,1.13.57,2.24,1.18,3.32,1.85a34.18,34.18,0,0,1,5.95,4.57l.76-5.89h0a3.75,3.75,0,0,0,3.79,6.48h0a3.78,3.78,0,0,0,.76-5.89,46.61,46.61,0,0,0-26.8-12.27,92.87,92.87,0,0,0-10-.25h-41.1a3.75,3.75,0,0,0,0,7.5Z"/><path class="cls-1" d="M111.22,192.28a39,39,0,0,1,11.26-7.35c-.45.19.16-.07.21-.08q.47-.19.93-.36c.49-.19,1-.37,1.5-.53,1.2-.4,2.42-.75,3.65-1,1-.25,2.09-.44,3.15-.61.78-.13.37-.06.2,0l.8-.09c.67-.07,1.34-.12,2-.16,2.85-.16,5.72-.07,8.56-.07h40.88a3.75,3.75,0,0,0,0-7.5H160.62c-8,0-16.05-.14-24.06,0A46.26,46.26,0,0,0,105.92,187a3.75,3.75,0,1,0,5.3,5.3Z"/><path class="cls-1" d="M234.22,292.61a40.43,40.43,0,0,1-5.5,3.57c-.94.51-1.9,1-2.88,1.43l-.89.4c.65-.29.12-.05,0,0l-1.84.71a57.1,57.1,0,0,1-6.77,2c-1.11.26-2.23.48-3.35.68l-1.7.28-.37.05c-.35,0-.69.09-1,.12a67.68,67.68,0,0,1-14.51.08c-.57-.05-1.14-.12-1.71-.19.72.09.13,0,0,0l-1-.15c-1.22-.2-2.43-.43-3.64-.7a54.44,54.44,0,0,1-6.62-1.92l-1.65-.63c-.18-.08-.84-.37-.12-.06l-.87-.38c-1.13-.52-2.23-1.08-3.31-1.7a35.84,35.84,0,0,1-3-1.95l-.48-.35c-.34-.25-.32-.23.05.05l-.46-.37a4.8,4.8,0,0,0-3.1-1.47,3.75,3.75,0,0,0,0,7.5h0l-2.65-1.1c7.62,6.38,17.18,9.5,26.92,10.74a68.7,68.7,0,0,0,29.87-2.74A48.55,48.55,0,0,0,238,299.09c1.6-1.24,2.46-3.22,1.35-5.13-.93-1.58-3.52-2.59-5.13-1.35Z"/><path class="cls-1" d="M192.9,55.6c.16,4.87.68,9.72.92,14.59.13,2.73.19,5.47.11,8.2,0,1.42-.12,2.85-.25,4.27-.06.7-.13,1.4-.22,2.09,0,.28-.13,1,0,.3-.06.44-.13.87-.2,1.31a55.68,55.68,0,0,1-2.16,8.8c-.25.74-.51,1.47-.79,2.2-.15.4-.31.79-.47,1.19l0,0-.3.68c-.7,1.57-1.49,3.11-2.34,4.61A62.32,62.32,0,0,1,173,120.54c-.47.41-1,.81-1.45,1.2l-.66.53c.64-.51-.12.09-.36.26-1,.74-2,1.44-3,2.12a66.45,66.45,0,0,1-6.06,3.53c-1,.52-2,1-3.07,1.48l-1.37.62-.47.2-.47.19c-2.07.86-4.17,1.64-6.28,2.39-9.42,3.33-18.94,6.28-27.91,10.76-12.38,6.17-23.33,14.9-33,24.76q-2.34,2.4-4.6,4.88l6.41,2.65a205.87,205.87,0,0,1,.51-29.49c.09-.94.2-1.88.31-2.82,0-.18.23-1.68.1-.75.07-.52.15-1,.23-1.55.26-1.7.56-3.4.91-5.08a73.62,73.62,0,0,1,2.39-8.88c.43-1.28.9-2.53,1.41-3.78.32-.81-.34.75.09-.22.12-.27.24-.53.35-.8.27-.58.54-1.15.82-1.72a60.51,60.51,0,0,1,3.51-6.17c.6-.93,1.23-1.85,1.87-2.75a27.28,27.28,0,0,0,2-2.7c-.3.56-.38.5,0,0l.51-.66,1-1.3,2.06-2.52c1.45-1.77,2.9-3.54,4.3-5.34,1-1.22,1.86-2.47,2.78-3.71.24-.33.49-.65.74-1s-.57.71,0,0c.12-.14.23-.28.34-.43.51-.63,1-1.26,1.55-1.88a78.26,78.26,0,0,1,6.69-6.94q1.76-1.62,3.6-3.13l1-.78.59-.47.71-.54,1.1-.81a99.85,99.85,0,0,1,17-9.88l2.2-1,.53-.22c-.77.33-.28.11-.11,0l1.32-.54q2.4-1,4.83-1.82c3.2-1.13,6.44-2.11,9.71-3s6.86-1.65,10.33-2.27c1.7-.31,3.41-.57,5.12-.82l.23,0,.39-.05,1.18-.15,2.66-.29a145.59,145.59,0,0,1,21.19-.58q5.24.24,10.43.86l1.33.16.59.08c.61.07-.93-.14,0,0l2.65.4q2.56.4,5.11.91a130,130,0,0,1,20,5.6c1.58.59,3.14,1.21,4.7,1.85-.86-.35.2.09.42.19l1.18.52c.83.37,1.65.75,2.47,1.14q4.47,2.13,8.74,4.66a98.25,98.25,0,0,1,8.24,5.49l1,.75c.15.11.55.45-.1-.07l.44.34c.64.51,1.29,1,1.92,1.56q1.91,1.59,3.7,3.28A81.4,81.4,0,0,1,288.25,94c.52.62,1,1.26,1.55,1.9.11.14.22.29.34.43-.07-.09-.49-.65-.09-.11.27.36.55.72.82,1.09,1,1.32,1.89,2.68,2.78,4.06a60.67,60.67,0,0,1,3.57,6.22c.19.4.36.8.54,1.2.32.71-.37-.91,0,0l.33.82c.42,1.06.81,2.12,1.18,3.2,4.11,11.83,6.89,24.17,9.65,36.38q3.21,14.25,6,28.6l.3,1.53a3.76,3.76,0,0,0,3.61,2.75H344.2a3.8,3.8,0,0,0,3.75-3.75c-.24-10.07,0-20.16.07-30.23,0-11.7.15-23.46-.7-35.14-.22-3-.32-6.35-1.27-9.28-1-3.12-2-6.23-3.06-9.35-2.54-7.77-5-15.57-7.64-23.32a34.5,34.5,0,0,0-3.16-6.24,99,99,0,0,0-6.06-9.27A109.71,109.71,0,0,0,311,38.82a136.7,136.7,0,0,0-37.45-23.44A186.72,186.72,0,0,0,231.48,3.09,222.3,222.3,0,0,0,206.93.24a103.25,103.25,0,0,0-13.85,0c-2.39.19-4.75.12-6.27,2.29a18,18,0,0,0-2.16,4.8c-3.27,10.07-1.7,21.62.55,31.7,1,4.35,2.19,8.64,3.58,12.88l5.51-4.23-.47-.35c-.5-.37-.2-.26.14.11a13.86,13.86,0,0,0-1.19-1c-.86-.71-1.69-1.44-2.49-2.21s-1.74-1.74-2.55-2.66c-.46-.51-.89-1-1.33-1.56l-.31-.39c.06.07.52.69.13.16l-.68-.93a41.3,41.3,0,0,1-2.36-3.74c-.39-.7-.75-1.42-1.09-2.14-.17-.35-.32-.71-.48-1.06s.22.6,0,.09c-.08-.24-.18-.47-.27-.7a37,37,0,0,1-1.53-5c-.19-.86-.34-1.72-.48-2.59s0-.15,0,0c0-.23,0-.46-.08-.68-.06-.58-.11-1.16-.14-1.74a41.84,41.84,0,0,1,.14-6.9c.11-1,.23-1.86.49-3.25s.62-2.86,1-4.27c.6-2.21-1.15-4.94-3.62-4.75a145.75,145.75,0,0,0-59.24,17.44,104.9,104.9,0,0,0-14.32,9.55c-1.59,1.26-1.31,4,0,5.31,1.57,1.57,3.71,1.26,5.31,0l.53-.42.38-.3,1.41-1c1-.69,1.93-1.37,2.91-2,2-1.34,4.05-2.6,6.14-3.8s4.32-2.38,6.53-3.47c1-.52,2.11-1,3.18-1.51l1.72-.78.76-.33.65-.28a145.67,145.67,0,0,1,28.64-8.72q4-.8,8-1.35c.66-.1-.47.06.19,0l1.18-.15,2-.22c1.35-.15,2.71-.27,4.06-.37l-3.61-4.75c-2.42,8.86-2.86,18.41.14,27.19a44,44,0,0,0,10.61,16.84,54.56,54.56,0,0,0,6.21,5.25c2.65,2,6.47-1.28,5.51-4.23a129,129,0,0,1-4.51-17.52l-.3-1.81c0-.35-.1-.7-.16-1,0-.14-.1-.75,0,0-.16-1.19-.29-2.38-.4-3.57-.16-2-.26-3.9-.25-5.85,0-1.61.08-3.22.24-4.82l.12-1c.06-.62,0,.38-.06.4a2.61,2.61,0,0,0,.09-.57q.14-.92.33-1.83a29.15,29.15,0,0,1,.77-2.92q.18-.56.39-1.11c.06-.16.14-.32.19-.48-.42,1.32-.3.69-.13.34s.44-.93.7-1.37.86-1.16-.27.29l-1.65,1s.16,0,.2,0,.23,0,.26,0,.15,0,.17,0a5.15,5.15,0,0,0-.73.1c.88-.09,1.76-.19,2.64-.25a100.91,100.91,0,0,1,11-.06,196.75,196.75,0,0,1,35.9,4.9c5.68,1.3,11.31,2.86,16.85,4.7q4.19,1.38,8.3,3c.69.26,1.37.54,2.06.81l1,.42.46.19c1.36.57,2.71,1.17,4.05,1.78a145.74,145.74,0,0,1,15.62,8.29c2.5,1.54,5,3.17,7.35,4.87,1.2.86,2.38,1.73,3.55,2.63-.45-.35,0,0,.11.08l.86.69c.67.53,1.34,1.07,2,1.62A108.07,108.07,0,0,1,315.37,54q1.45,1.68,2.84,3.42l.45.58c-.43-.55.32.42.32.43.53.69,1,1.39,1.55,2.1,1.75,2.44,3.38,5,4.9,7.56.74,1.26,1.45,2.54,2.13,3.83.14.28.28.58.44.85.42.7,0,.17,0-.2a.58.58,0,0,0,.06.17c.21.71.46,1.41.69,2.11l3,9.12,6.64,20.29c.2.61.42,1.22.6,1.83.1.37.72,2.51.49,2.73.09-.08-.13-1.09,0-.3,0,.15,0,.3.05.45l.12,1.06c.09.91.17,1.82.24,2.74q.21,2.94.33,5.89c.8,18.54.18,37.1.26,55.65,0,1.35,0,2.7.05,4.05l3.75-3.75H318.83l3.62,2.75c-1.38-7.23-2.89-14.43-4.44-21.63-2.79-12.87-5.69-25.76-9.45-38.38a85.21,85.21,0,0,0-5.15-14A77.24,77.24,0,0,0,293,88.11c-8.85-10.28-20.28-18.29-32.54-24a135.92,135.92,0,0,0-41.72-11.45,147.46,147.46,0,0,0-43.33,1.49,120.55,120.55,0,0,0-39.37,14.29,94.56,94.56,0,0,0-16.44,12.18,79,79,0,0,0-6.73,7.08c-1.2,1.42-2.34,2.89-3.44,4.38-.42.57-.82,1.14-1.24,1.7-.08.12-.73,1-.3.41s-.32.4-.43.54c-5.79,7.38-12.16,14.33-16.28,22.85-6.37,13.17-8,28.09-8.21,42.55-.09,5.32,0,10.64.25,16,.13,3.07,4.1,5.17,6.4,2.65a153.44,153.44,0,0,1,17.8-16.87l1.07-.84.47-.35c.7-.53,1.4-1,2.11-1.56,1.31-.95,2.65-1.87,4-2.75q3.82-2.5,7.85-4.67,3.6-1.93,7.34-3.58l.92-.41.48-.2.6-.25,1-.43c1.15-.46,2.31-.9,3.47-1.34,4.42-1.65,8.91-3.1,13.37-4.64,9.3-3.22,18.14-7.13,26-13.21,11.3-8.81,20.18-21.14,23.53-35.19,2.65-11.11,1.62-22.23.92-33.48-.07-1.13-.12-2.26-.16-3.39a3.82,3.82,0,0,0-3.75-3.75,3.78,3.78,0,0,0-3.75,3.75Z"/><path class="cls-1" d="M341,190.61a138.63,138.63,0,0,1-.29,18.68c-.15,1.37-.26,2.17-.57,3.77s-.62,2.91-1,4.34a32.14,32.14,0,0,1-3.21,7.56,39.67,39.67,0,0,1-6.45,8.41l5.55,2.3V190.61l-3.25,3.25h12.51c4.18,0,4.19-6.5,0-6.5H331.73a3.3,3.3,0,0,0-3.25,3.25v45.06A3.28,3.28,0,0,0,334,238a45.54,45.54,0,0,0,10.82-17.21,61.85,61.85,0,0,0,2.78-18.63c.08-3.84,0-7.68-.13-11.52a3.25,3.25,0,0,0-6.5,0Z"/><polygon class="cls-2" points="51.59 46.71 69.81 36.74 79.77 18.53 89.74 36.74 107.95 46.71 89.74 56.67 79.77 74.89 69.81 56.67 51.59 46.71"/><path class="cls-1" d="M83.5,174.56H61.24L65,178.31V151c0-9.45-.15-18.91,0-28.35a115.12,115.12,0,0,1,8-40.12c.72-1.83-.79-4.2-2.62-4.61a3.86,3.86,0,0,0-4.61,2.62,121.47,121.47,0,0,0-8.08,37c-.27,4.37-.23,8.75-.23,13.13v47.59a3.8,3.8,0,0,0,3.75,3.75H83.5a3.75,3.75,0,0,0,0-7.5Z"/><path class="cls-1" d="M64.49,204.19V190.61l-3.25,3.25H73.42l-3.25-3.25v45.1l5.55-2.29C68,225.61,64.54,215,64.49,204.19c0-4.18-6.51-4.19-6.5,0C58,216.69,62.27,229,71.13,238a3.28,3.28,0,0,0,5.54-2.3v-45.1a3.29,3.29,0,0,0-3.25-3.25H61.24A3.3,3.3,0,0,0,58,190.61v13.58C58,208.37,64.49,208.38,64.49,204.19Z"/><path class="cls-1" d="M196.65,95.33q3.32.39,6.63.81l.69.1c-.74-.1,0,0,.21,0l1.54.22,3.39.49q6.21.94,12.36,2.15A198.85,198.85,0,0,1,244.53,105q5.33,1.74,10.51,3.88l.68.28-.09,0,1.21.53q1.26.55,2.52,1.14,2.47,1.16,4.91,2.43a106.81,106.81,0,0,1,9.3,5.47c1.49,1,3,2,4.39,3.07l.91.67.56.43c.46.34-.71-.56,0,0s1.39,1.11,2.08,1.68a96.5,96.5,0,0,1,7.78,7.22c1.26,1.31,2.49,2.66,3.67,4,.57.66,1.12,1.33,1.67,2l.82,1c.16.19.31.39.46.58-.4-.51-.08-.1.13.17a109.26,109.26,0,0,1,11.85,19.83c.41.9.82,1.8,1.22,2.7l.33.76c.07.17.36.85.08.18.21.52.43,1,.64,1.55q1.21,3,2.31,6.12t2.1,6.44c.15.47.26,1,.42,1.4.35,1,.05-.32.07.31,0,.33,0,.66,0,1,0,1.27,0,2.55,0,3.82,0,10.59.23,21.19.2,31.78,0,10.77-.3,21.55-1.32,32.28-.51,5.45-1.09,9.9-2.09,15.29A131.44,131.44,0,0,1,308.23,278c-.73,2.37-1.54,4.7-2.43,7a3.77,3.77,0,0,0,2.62,4.62A3.86,3.86,0,0,0,313,287c7.83-20.31,9.33-42.62,9.66-64.17.17-10.79,0-21.57-.1-32.36q0-4,0-8c0-1.27.05-2.54,0-3.81a15.35,15.35,0,0,0-1-4.2c-1.3-4.22-2.78-8.39-4.46-12.48-6-14.75-14.64-28.42-26.39-39.31-11.18-10.36-24.58-17.79-38.83-23-15.66-5.77-32.15-8.87-48.65-11q-3.32-.42-6.63-.81c-2-.22-3.83,1.89-3.75,3.75a3.85,3.85,0,0,0,3.75,3.75Z"/><path class="cls-1" d="M274.34,338.24a158.78,158.78,0,0,1-12.57,12.45,142.67,142.67,0,0,1-13.34,10.53,155.88,155.88,0,0,1-14.61,9.07c-2.51,1.36-5,2.66-7.62,3.88s-5,2.28-7.29,3.2q-4.5,1.81-9.11,3.32-2.31.75-4.63,1.43c-1.6.46-3.94.71-5.15,1.92l3.65-1a201.57,201.57,0,0,1-27.26-8.73l-1.32-.55c-.16-.06-1.06-.44-.16-.06l-.79-.34c-1-.44-2.07-.9-3.1-1.37q-2.89-1.32-5.75-2.76c-3.75-1.9-7.42-3.95-11-6.18q-5.06-3.15-9.8-6.75l-.61-.46c.82.62.11.08,0,0l-1.2-.94c-.78-.64-1.56-1.28-2.33-1.93q-2.2-1.86-4.32-3.82-4.22-3.93-8-8.25-1.92-2.17-3.74-4.44l-.77-1-.45-.59c.64.83.11.14,0,0-.59-.79-1.19-1.58-1.77-2.38a132.43,132.43,0,0,1-11.9-20.06c-.89-1.86-1.75-3.74-2.56-5.63-.11-.26-.65-1.54-.24-.54l-.6-1.45c-.39-1-.78-1.95-1.16-2.94q-2.2-5.76-4-11.67a220.33,220.33,0,0,1-6.15-26q-.6-3.39-1.11-6.79c-.17-1.11-.33-2.21-.48-3.31,0-.3-.08-.61-.13-.91l0-.22c-.07-.61-.15-1.22-.23-1.83-.62-4.92-1.12-9.84-1.53-14.78A546.92,546.92,0,0,1,90.15,171c.11-2.95.24-5.91.38-8.86a3.78,3.78,0,0,0-3.75-3.75A3.83,3.83,0,0,0,83,162.12c-1.08,22.68-1.41,45.44.09,68.1,1.27,19.17,3.79,38.41,8.92,57,4.42,16,10.87,31.62,20.13,45.44a126.4,126.4,0,0,0,34.29,34.32c15.06,10.17,32.18,17.14,49.66,21.92,1.12.31,2.25.61,3.38.9,2,.51,4.14,1.27,5.83-.41l-1.66,1a156,156,0,0,0,61.69-32.82,160.72,160.72,0,0,0,14.29-13.94,3.84,3.84,0,0,0,0-5.31,3.8,3.8,0,0,0-5.31,0Z"/><polygon class="cls-2" points="311.08 334.63 301.12 352.84 291.16 334.63 272.94 324.66 291.16 314.7 301.12 296.48 311.08 314.7 329.3 324.66 311.08 334.63"/><path class="cls-3" d="M374.92,264h-12.3v12.3h-12.3v12.3h12.3v12.3h12.3v-12.3h12.3v-12.3h-12.3Z"/><path class="cls-3" d="M27.1,80.1H14.8V92.4H2.5v12.29H14.8V117H27.1v-12.3H39.39V92.4H27.1Z"/></g></g></svg>